<svg width="32" height="32" viewBox="0 0 32 32" fill="none" xmlns="http://www.w3.org/2000/svg">
<path d="M7.23286 8.46338C8.05206 8.46338 8.74838 8.57943 9.32181 8.81154C9.89526 9.04365 10.455 9.37133 11.0012 9.79458C11.1514 9.91746 11.2811 9.9789 11.3903 9.9789C11.6634 9.9789 11.8409 9.5693 11.9228 8.7501H12.3938C12.3392 9.63757 12.3119 11.2077 12.3119 13.4605H11.8409C11.6907 12.573 11.5541 11.9382 11.4313 11.5559C11.3084 11.1599 11.1036 10.7844 10.8169 10.4295C10.4073 9.89698 9.8816 9.50103 9.23989 9.24162C8.61184 8.96855 7.92917 8.83202 7.19189 8.83202C6.30443 8.83202 5.52619 9.12557 4.85718 9.71266C4.20182 10.2998 3.68981 11.1394 3.32117 12.2317C2.95253 13.3103 2.76821 14.5801 2.76821 16.041C2.76821 17.5292 2.96619 18.8058 3.36213 19.8707C3.75808 20.9357 4.30422 21.7481 5.00054 22.3079C5.71051 22.854 6.50923 23.1271 7.39669 23.1271C8.07936 23.1271 8.74155 22.9974 9.38325 22.7379C10.025 22.4785 10.5301 22.0894 10.8988 21.5706C11.1718 21.1883 11.3698 20.7787 11.4927 20.3418C11.6156 19.9049 11.7316 19.2359 11.8409 18.3347H12.3119C12.3119 20.6831 12.3392 22.3215 12.3938 23.2499H11.9228C11.8818 22.813 11.8204 22.5058 11.7385 22.3283C11.6702 22.1372 11.5678 22.0416 11.4313 22.0416C11.322 22.0416 11.1787 22.0962 11.0012 22.2055C10.3868 22.6424 9.79968 22.9769 9.23989 23.209C8.68011 23.4274 8.00427 23.5367 7.21237 23.5367C5.91531 23.5367 4.77525 23.2431 3.79221 22.656C2.82283 22.0689 2.06507 21.2224 1.51893 20.1165C0.986455 18.9969 0.720215 17.6657 0.720215 16.1229C0.720215 14.621 0.993282 13.2898 1.53941 12.1293C2.0992 10.9688 2.87061 10.0676 3.85366 9.42594C4.85035 8.78423 5.97675 8.46338 7.23286 8.46338Z" fill="black"/>
<path d="M16.8735 26.72L16.2335 26.72L16.2335 5.28003L16.8735 5.28003L16.8735 26.72Z" fill="black"/>
<path d="M31.1991 20.6285C31.1991 21.4068 31.2469 22.2806 31.3425 23.25C30.4141 23.209 28.8508 23.1885 26.6526 23.1885C24.0311 23.1885 22.0514 23.209 20.7134 23.25V22.8404C21.2049 22.8131 21.5599 22.7584 21.7783 22.6765C22.0104 22.5946 22.1675 22.4376 22.2494 22.2055C22.3313 21.9734 22.3723 21.5979 22.3723 21.0791V10.921C22.3723 10.4022 22.3313 10.0267 22.2494 9.7946C22.1675 9.5625 22.0104 9.40548 21.7783 9.32356C21.5599 9.24164 21.2049 9.18703 20.7134 9.15972V8.75012C22.0514 8.79108 24.0311 8.81156 26.6526 8.81156C28.6596 8.81156 30.0864 8.79108 30.9329 8.75012C30.8373 9.65124 30.7895 10.4568 30.7895 11.1668C30.7895 11.6992 30.81 12.1225 30.851 12.4365H30.3799C30.2844 11.5491 30.1615 10.8937 30.0113 10.4704C29.8611 10.0335 29.6085 9.71951 29.2535 9.52836C28.8986 9.32356 28.3592 9.22116 27.6356 9.22116H25.9358C25.4443 9.22116 25.0824 9.26212 24.8503 9.34404C24.6319 9.41231 24.4817 9.5625 24.3998 9.7946C24.3179 10.0267 24.2769 10.4022 24.2769 10.921V15.7543H25.6286C26.1064 15.7543 26.4751 15.6451 26.7345 15.4266C26.9939 15.1945 27.1646 14.9283 27.2465 14.6279C27.3421 14.3139 27.4172 13.9247 27.4718 13.4605L27.5332 13.0509H28.0043C27.9633 13.6244 27.9428 14.2661 27.9428 14.976V15.9591C27.9428 16.6554 27.9838 17.6248 28.0657 18.8672H27.5947C27.581 18.7717 27.54 18.444 27.4718 17.8842C27.4035 17.3108 27.2124 16.8807 26.8983 16.594C26.598 16.3072 26.1747 16.1639 25.6286 16.1639H24.2769V21.0791C24.2769 21.5979 24.3179 21.9734 24.3998 22.2055C24.4817 22.4376 24.6319 22.5946 24.8503 22.6765C25.0824 22.7448 25.4443 22.7789 25.9358 22.7789H27.4308C28.2773 22.7789 28.919 22.6697 29.3559 22.4512C29.8065 22.2191 30.1342 21.8573 30.339 21.3658C30.5438 20.8606 30.694 20.1233 30.7895 19.154H31.2606C31.2196 19.5226 31.1991 20.0141 31.1991 20.6285Z" fill="black"/>
</svg>
