<svg width="16" height="16" viewBox="0 0 16 16" fill="none" xmlns="http://www.w3.org/2000/svg">
<path fill-rule="evenodd" clip-rule="evenodd" d="M8.95449 4.56381C8.92709 3.93159 8.59197 3.40846 8.08878 3.19656C7.56464 2.97585 6.96665 3.13794 6.54795 3.66326C6.3986 3.85062 6.25467 4.0474 6.11882 4.24851C5.85727 4.63571 5.41519 4.8948 4.92497 4.92474C4.65743 4.94109 4.42786 4.96369 4.22822 4.9905C3.27842 5.11803 2.57497 5.85909 2.41257 6.73711C2.34064 7.12598 2.28564 7.56703 2.28564 7.99998C2.28564 8.43293 2.34064 8.87398 2.41257 9.26286C2.57497 10.1409 3.27842 10.882 4.22822 11.0095C4.42786 11.0362 4.65743 11.0589 4.92497 11.0752C5.41519 11.1051 5.85727 11.3642 6.11882 11.7514C6.25467 11.9526 6.3986 12.1493 6.54795 12.3367C6.96665 12.862 7.56464 13.0241 8.08878 12.8034C8.59197 12.5915 8.92709 12.0684 8.95449 11.4362C8.99106 10.5928 9.02034 9.46131 9.02034 7.99998C9.02034 6.53866 8.99106 5.40713 8.95449 4.56381ZM10.199 6.60224C10.4263 6.35194 10.8136 6.33332 11.0638 6.56066C11.4347 6.89754 11.6727 7.39905 11.6727 8.00006C11.6727 8.60106 11.4347 9.10256 11.0638 9.43945C10.8136 9.66679 10.4263 9.64817 10.199 9.39787C9.97164 9.14757 9.99026 8.76037 10.2406 8.53303C10.3492 8.43434 10.4483 8.26507 10.4483 8.00006C10.4483 7.73504 10.3492 7.56577 10.2406 7.46709C9.99026 7.23975 9.97164 6.85254 10.199 6.60224ZM12.2518 4.55463C11.9988 4.33029 11.6118 4.35352 11.3875 4.60651C11.1632 4.85951 11.1864 5.24647 11.4394 5.4708C12.041 6.00429 12.4897 6.85256 12.4897 7.99993C12.4897 9.14729 12.041 9.99556 11.4394 10.5291C11.1864 10.7534 11.1632 11.1403 11.3875 11.3933C11.6118 11.6464 11.9988 11.6696 12.2518 11.4452C13.1222 10.6734 13.7142 9.48855 13.7142 7.99993C13.7142 6.51131 13.1222 5.32643 12.2518 4.55463Z" fill="black"/>
</svg>
