<svg width="16" height="16" viewBox="0 0 16 16" fill="none" xmlns="http://www.w3.org/2000/svg">
<path d="M7.99965 11.4382C5.20004 11.4382 3.16582 11.3311 2.03366 11.2507C1.481 11.2115 0.999512 11.6477 0.999512 12.2017C0.999512 13.5172 1.92121 14.6386 3.22993 14.7726C4.39815 14.8922 6.00455 15 7.99965 15C9.99475 15 11.6012 14.8922 12.7693 14.7726C14.0781 14.6386 14.9998 13.5172 14.9998 12.2017C14.9998 11.6477 14.5183 11.2115 13.9656 11.2507C12.8335 11.3311 10.7993 11.4382 7.99965 11.4382ZM7.99965 11.4382C10.4994 11.4382 12.3888 11.3527 13.5709 11.2772C13.6803 10.6013 13.7744 9.84643 13.8478 9.0761M7.99965 11.4382C5.49962 11.4382 3.60981 11.3527 2.42779 11.2772C2.13568 9.47238 1.95234 7.1042 1.98288 5.38314C2.00098 4.36188 2.76877 3.52271 3.78317 3.40311C4.79458 3.28386 5.79264 3.20699 6.78686 3.1725M14.2221 6.14541L9.85407 1.77742M12.0381 6.92288C13.9335 6.92288 14.9997 5.85673 14.9997 3.96135C14.9997 2.06597 13.9335 0.999817 12.0381 0.999817C10.1426 0.999817 9.07646 2.06597 9.07646 3.96135C9.07646 5.85673 10.1426 6.92288 12.0381 6.92288Z" stroke="black" stroke-linecap="round" stroke-linejoin="round"/>
</svg>
