<svg width="16" height="16" viewBox="0 0 16 16" fill="none" xmlns="http://www.w3.org/2000/svg">
<path d="M6.60782 4C5.58941 4.02373 4.56866 4.07638 3.53966 4.15795C2.25018 4.26017 1.19448 5.19857 1.1014 6.41011C0.966201 8.16945 0.966201 9.81596 1.1014 11.5753C1.19448 12.7868 2.25018 13.7252 3.53966 13.8275C6.44161 14.0575 9.27836 14.0575 12.1804 13.8275C13.4698 13.7252 14.5255 12.7868 14.6186 11.5753C14.686 10.6981 14.7198 9.84903 14.72 9M2.96 8L2.96 10.0609M14.1914 7.45911L9.64869 2.82367M11.92 8.28571C13.8912 8.28571 15 7.15429 15 5.14286C15 3.13143 13.8912 2 11.92 2C9.9488 2 8.84 3.13143 8.84 5.14286C8.84 7.15429 9.9488 8.28571 11.92 8.28571Z" stroke="black" stroke-linecap="round" stroke-linejoin="round"/>
</svg>
