<svg width="16" height="16" viewBox="0 0 16 16" fill="none" xmlns="http://www.w3.org/2000/svg">
<path d="M2.81328 3.86152C3.18859 3.4594 3.67965 3.20571 4.2064 3.14183C5.84721 2.95281 7.45964 2.95264 9.10045 3.14183C9.6272 3.20571 10.1183 3.4594 10.4936 3.86152C10.8688 4.26366 11.1063 4.79051 11.1671 5.35618C11.1952 5.62504 11.219 5.8924 11.2385 6.15871C11.695 5.89777 12.1916 5.65985 12.7088 5.47743C13.0913 5.34253 13.5056 5.5177 13.6412 5.8948C13.8235 6.40187 14 7.13719 14 7.99997C14 8.86274 13.8235 9.59807 13.6412 10.1051C13.5056 10.4822 13.0913 10.6574 12.7088 10.5225C12.1916 10.3401 11.6949 10.1021 11.2384 9.84112C11.219 10.1075 11.1954 10.3749 11.1678 10.6439C11.107 11.2096 10.8697 11.7364 10.4943 12.1385C10.119 12.5407 9.62795 12.7944 9.1012 12.8583C7.46008 13.0472 5.84751 13.0473 4.2064 12.8583C3.67965 12.7944 3.18858 12.5407 2.81328 12.1385C2.43797 11.7364 2.20056 11.2096 2.13976 10.6439C1.95333 8.85991 1.9535 7.14017 2.13976 5.35618C2.20056 4.79051 2.43797 4.26366 2.81328 3.86152Z" fill="black"/>
</svg>
