<svg width="16" height="16" viewBox="0 0 16 16" fill="none" xmlns="http://www.w3.org/2000/svg">
<path fill-rule="evenodd" clip-rule="evenodd" d="M2.4153 3.27388C2.20722 3.00728 2.25465 2.62247 2.52125 2.41439C2.78785 2.2063 3.17266 2.25374 3.38074 2.52034C4.21557 3.5899 4.9575 4.51027 5.66429 5.34013C5.92741 5.15955 6.23544 5.0356 6.57494 4.99001C6.77461 4.9632 7.00422 4.94059 7.2718 4.92424C7.7621 4.89429 8.20426 4.63516 8.46586 4.2479C8.60173 4.04675 8.74569 3.84994 8.89506 3.66254C9.31383 3.13713 9.91193 2.97501 10.4362 3.19576C10.9394 3.4077 11.2747 3.93092 11.302 4.56325C11.3386 5.40671 11.3679 6.53844 11.3679 8.00002C11.3679 9.16087 11.3494 10.1136 11.3235 10.8792C11.9769 11.4221 12.689 11.9957 13.4819 12.6226C13.7472 12.8324 13.7922 13.2175 13.5824 13.4828C13.3727 13.748 12.9875 13.7931 12.7223 13.5833C10.0984 11.5086 8.33215 9.99529 6.66262 8.26902C6.06795 7.65651 5.48657 7.01731 4.88252 6.31489L4.88385 6.31162C4.11947 5.42171 3.3198 4.43272 2.4153 3.27388ZM4.63201 8.00002C4.63201 7.86553 4.63732 7.73025 4.64679 7.59601C6.34121 9.50345 7.94034 10.9946 10.2324 12.8702C9.76218 12.9777 9.26039 12.7959 8.89506 12.3375C8.74569 12.1501 8.60173 11.9533 8.46586 11.7522C8.20426 11.3648 7.7621 11.1058 7.2718 11.0758C7.00422 11.0595 6.77461 11.0369 6.57494 11.01C5.62496 10.8825 4.9214 10.1413 4.75897 9.26311C4.68703 8.87418 4.63201 8.43305 4.63201 8.00002Z" fill="black"/>
</svg>
