<svg width="16" height="16" viewBox="0 0 16 16" fill="none" xmlns="http://www.w3.org/2000/svg">
<path d="M6.72306 4.31558C6.65962 2.83101 5.83029 2.00006 4.4 2.00006C2.96971 2.00006 2.14039 2.83101 2.07695 4.31558C1.97435 6.71677 1.97435 9.28329 2.07695 11.6845C2.14039 13.169 2.96971 14 4.4 14C5.83029 14 6.65962 13.169 6.72306 11.6845C6.82566 9.28329 6.82566 6.71677 6.72306 4.31558Z" fill="black"/>
<path d="M13.923 4.31551C13.8597 2.83095 13.0303 2 11.6 2C10.1697 2 9.3404 2.83095 9.27697 4.31551C9.17436 6.71671 9.17436 9.28322 9.27697 11.6844C9.3404 13.169 10.1697 13.9999 11.6 13.9999C13.0303 13.9999 13.8597 13.169 13.923 11.6844C14.0257 9.28322 14.0257 6.71671 13.923 4.31551Z" fill="black"/>
</svg>
