<svg width="16" height="16" viewBox="0 0 16 16" fill="none" xmlns="http://www.w3.org/2000/svg">
<path d="M13 7.07692C13 10.3327 9.28903 13.2297 8.41161 13.8691C8.29122 13.9569 8.14819 14 8 14C7.85181 14 7.70878 13.9569 7.58839 13.8691C6.71097 13.2297 3 10.3327 3 7.07692C3 4.27301 5.23857 2 8 2C10.7615 2 13 4.27301 13 7.07692Z" stroke="black" stroke-linecap="round" stroke-linejoin="round"/>
<path d="M6.18182 6.61538C6.18182 7.10502 6.37338 7.57459 6.71435 7.92081C7.05533 8.26703 7.51779 8.46154 8 8.46154C8.48221 8.46154 8.94467 8.26703 9.28565 7.92081C9.62662 7.57459 9.81818 7.10502 9.81818 6.61538C9.81818 6.12575 9.62662 5.65618 9.28565 5.30996C8.94467 4.96374 8.48221 4.76923 8 4.76923C7.51779 4.76923 7.05533 4.96374 6.71435 5.30996C6.37338 5.65618 6.18182 6.12575 6.18182 6.61538Z" stroke="black" stroke-linecap="round" stroke-linejoin="round"/>
</svg>
