<svg width="12" height="12" viewBox="0 0 12 12" fill="none" xmlns="http://www.w3.org/2000/svg">
<path d="M10.3777 5.20409C10.3777 8.01139 7.12867 10.5093 6.36048 11.0606C6.25507 11.1363 6.12985 11.1735 6.00011 11.1735C5.87037 11.1735 5.74514 11.1363 5.63974 11.0606C4.87155 10.5093 1.62256 8.01139 1.62256 5.20409C1.62256 2.78643 3.58245 0.826538 6.00011 0.826538C8.41779 0.826538 10.3777 2.78643 10.3777 5.20409Z" stroke="black" stroke-linecap="round" stroke-linejoin="round"/>
<path d="M4.40827 4.80613C4.40827 5.22831 4.57598 5.6332 4.87451 5.93173C5.17304 6.23026 5.57793 6.39797 6.00011 6.39797C6.42229 6.39797 6.82718 6.23026 7.12571 5.93173C7.42424 5.6332 7.59195 5.22831 7.59195 4.80613C7.59195 4.38395 7.42424 3.97906 7.12571 3.68053C6.82718 3.382 6.42229 3.21429 6.00011 3.21429C5.57793 3.21429 5.17304 3.382 4.87451 3.68053C4.57598 3.97906 4.40827 4.38395 4.40827 4.80613Z" stroke="black" stroke-linecap="round" stroke-linejoin="round"/>
</svg>
