<svg width="37" height="8" viewBox="0 0 37 8" fill="none" xmlns="http://www.w3.org/2000/svg">
<path d="M32.4765 7.50241C33.7567 6.98851 34.7019 5.60283 35.5828 4.61174C35.6333 4.55668 35.6516 4.49703 35.6608 4.43738C35.6975 4.43738 35.7342 4.43738 35.7755 4.43738C35.9958 4.43738 36.1059 4.26762 36.1059 4.09785C36.1059 3.92808 35.9958 3.75831 35.7755 3.75831C35.6149 3.75831 35.4589 3.75831 35.2983 3.75831C34.5504 2.99205 33.853 2.05144 33.0225 1.39071C32.4811 0.959409 31.5955 0.624459 30.9853 1.13377C29.9988 1.95967 31.1505 3.15723 32.2287 3.74454C31.3707 3.74454 30.5127 3.73537 29.6593 3.73537C29.5537 2.77181 28.9572 1.74861 28.2506 1.14294C27.6863 0.661166 26.7502 -0.0270882 26.0069 0.514338C25.2498 1.06953 25.8601 2.06061 26.3098 2.58369C26.6998 3.03794 27.2412 3.48301 27.8377 3.73995C26.4841 3.73995 25.1351 3.74913 23.7816 3.75831C23.988 2.88193 23.2493 1.76696 22.6804 1.15671C22.2261 0.670343 21.2993 0.193153 20.6661 0.674931C19.909 1.24848 20.6844 2.29921 21.1662 2.75346C21.6434 3.20312 22.194 3.5656 22.8088 3.7629C21.9967 3.76748 21.18 3.77666 20.3678 3.78584C20.2715 3.72619 20.1522 3.71242 20.0604 3.78584C20.0191 3.78584 19.9778 3.78584 19.9319 3.78584C19.8723 3.78584 19.8126 3.78584 19.753 3.78584C19.7576 3.74913 19.7576 3.70784 19.7484 3.66195C19.5052 2.68463 18.9959 1.6706 18.0828 1.16588C17.5185 0.853877 16.5228 0.638224 16.0272 1.20718C15.2105 2.15238 16.9862 3.30406 18.2664 3.78584C17.3349 3.78584 16.3989 3.78584 15.4629 3.78125C15.495 3.68031 15.4721 3.56101 15.3528 3.51054C15.3023 3.48759 15.2518 3.47842 15.2013 3.45548C14.871 2.83605 14.3846 2.28544 13.8157 1.88626C13.2742 1.50542 12.3611 1.06953 11.7784 1.61096C11.2554 2.09273 11.5674 2.90487 12.0904 3.24441C12.4575 3.48301 12.9117 3.55183 13.3293 3.6436C13.5174 3.68489 13.7101 3.73078 13.9074 3.77207C12.7557 3.7629 11.6041 3.75831 10.457 3.75831C10.457 3.71701 10.434 3.68489 10.4065 3.65277C10.0486 2.90946 9.51178 2.18909 8.81893 1.73943C8.41057 1.4733 7.36901 0.996116 6.94688 1.46872C6.52476 1.94591 7.0983 2.6984 7.47913 2.98746C7.95174 3.34994 8.57116 3.59313 9.19059 3.7629C7.6122 3.77207 6.0338 3.80419 4.45999 3.87302C4.45999 3.82713 4.43705 3.78125 4.39117 3.74454C3.66162 3.17559 2.58336 2.83605 1.65651 2.82228C1.05084 2.81769 0.11482 3.04252 0.0138762 3.76748C-0.266014 5.75424 3.77174 4.79528 4.58388 4.32726C4.59764 4.31809 4.60682 4.30891 4.616 4.29973C5.79062 4.35021 6.96524 4.37774 8.13986 4.39609C7.91962 4.51997 7.72232 4.64386 7.5709 4.7448C6.979 5.13482 6.02921 5.93778 6.35957 6.76368C6.74041 7.70429 8.02515 7.1904 8.58952 6.76368C9.35118 6.18555 9.98897 5.33211 10.2826 4.41444C11.3701 4.41444 12.4575 4.41444 13.5495 4.40527C13.0035 4.64845 12.4896 4.9421 12.0629 5.29082C11.5995 5.67165 10.9158 6.42414 11.3701 7.04816C11.8518 7.70888 12.898 7.35558 13.4624 7.02063C14.4626 6.42873 15.0866 5.40553 15.5959 4.39609C15.5959 4.39609 15.5959 4.39609 15.5959 4.3915C16.4127 4.38691 17.234 4.38691 18.0507 4.38691C17.6699 4.52456 17.3074 4.7081 16.9633 4.9421C16.3989 5.32753 15.4078 6.18096 15.7382 6.97933C16.1144 7.88783 17.3854 7.42899 17.9635 7.04357C18.9592 6.37826 19.7438 5.43306 20.3311 4.39609C21.157 4.40527 21.9829 4.40985 22.8088 4.41903C22.2032 4.67139 21.625 4.97881 21.1524 5.4147C20.689 5.83683 20.1155 6.74992 20.6982 7.30511C21.3543 7.92912 22.4509 7.43358 23.0199 6.94722C23.7403 6.32779 24.3413 5.39176 24.5203 4.4328C25.6031 4.44197 26.686 4.44197 27.7689 4.44656C27.333 4.6301 26.9154 4.84575 26.5392 5.09352C25.8876 5.52024 25.3278 6.41038 25.8647 7.15369C26.4474 7.95207 27.6587 7.58041 28.2965 7.0711C29.0949 6.43332 29.5216 5.40553 29.8657 4.45574C30.7375 4.45574 31.6139 4.44656 32.4857 4.44656C32.1094 4.59339 31.7515 4.78151 31.4258 5.03387C30.866 5.46976 30.1043 6.3232 30.4622 7.09404C30.8109 7.84653 31.8387 7.75477 32.4673 7.49782L32.4765 7.50241ZM29.2096 4.46033C29.0077 4.97422 28.7829 5.49271 28.4755 5.94695C28.2506 6.2819 27.9707 6.58932 27.6083 6.77745C27.388 6.90133 27.1494 6.96557 26.8971 6.97016C26.6309 7.01145 26.4933 6.88298 26.4795 6.59391C26.2593 6.33238 26.2868 6.08919 26.5667 5.85519C26.7135 5.70836 26.8741 5.58906 27.0531 5.48812C27.3238 5.32294 27.622 5.18988 27.9019 5.04764C28.3332 4.83198 28.7645 4.6301 29.2096 4.45574V4.46033ZM8.99329 4.41444C9.25024 4.41444 9.5026 4.41444 9.75955 4.41903C9.53472 4.88704 9.28695 5.3367 8.93823 5.73589C8.70881 5.99743 8.44728 6.25437 8.15821 6.44708C7.99762 6.55721 7.82326 6.64897 7.63973 6.71321C7.31395 6.89674 7.13042 6.79121 7.08912 6.39661C6.81841 6.14425 6.823 5.91484 7.10289 5.70377C7.19466 5.59365 7.29101 5.48812 7.39654 5.39176C7.6489 5.15776 7.93797 4.97422 8.23621 4.80904C8.40598 4.71727 8.68587 4.55668 8.9887 4.40985L8.99329 4.41444ZM14.8664 4.40527C14.6003 4.90081 14.3066 5.38259 13.935 5.80472C13.7055 6.06625 13.4532 6.30485 13.1595 6.48838C12.9806 6.60768 12.7879 6.69944 12.586 6.76368C12.3153 6.91051 12.1776 6.78662 12.1776 6.39661C11.9253 6.15343 11.9207 5.95613 12.1638 5.80013C12.3244 5.64412 12.4988 5.50647 12.6869 5.38717C12.9668 5.20364 13.2696 5.04764 13.5679 4.90081C13.9671 4.7081 14.38 4.55209 14.793 4.39609C14.8205 4.39609 14.8434 4.39609 14.871 4.39609L14.8664 4.40527ZM9.91555 3.50136C9.48883 3.39124 9.0667 3.27653 8.65375 3.12511C8.3968 3.03335 8.13527 2.93699 7.90126 2.79934C7.68102 2.68463 7.50208 2.51945 7.36443 2.31297C7.33231 1.80826 7.46537 1.61554 7.77738 1.73025C8.72258 1.71649 9.38789 2.71216 9.91555 3.50136ZM14.6553 3.29488C14.2745 3.20312 13.8845 3.13888 13.5082 3.06547C13.2375 3.01041 12.9439 2.9737 12.6823 2.87275C12.1822 2.68004 11.861 2.0285 12.586 1.95508C13.1503 1.90002 13.8661 2.46898 14.2378 2.82687C14.3892 2.9737 14.5269 3.13429 14.6599 3.29947L14.6553 3.29488ZM19.106 3.68948C18.7711 3.49677 18.3765 3.40042 18.0278 3.23523C17.5185 2.99664 17.0183 2.6984 16.6467 2.27168C16.3071 1.99638 16.3576 1.68896 16.7981 1.34942C16.977 1.34024 17.156 1.36318 17.3303 1.41825C17.6745 1.51919 17.9911 1.73025 18.2434 1.98261C18.7114 2.45521 18.9225 3.07005 19.1106 3.68948H19.106ZM23.1346 3.45548C22.7171 3.29029 22.3179 3.08841 21.96 2.79934C21.6159 2.51945 20.5238 1.3953 21.1891 1.08788C21.7902 0.807993 22.4876 1.89543 22.7125 2.29462C22.9144 2.6571 22.9924 3.07464 23.1346 3.45548ZM28.9572 3.59313C28.3745 3.30406 27.7643 3.11135 27.255 2.68922C26.8879 2.38639 25.5527 0.812581 26.8145 0.931879C27.466 0.996116 28.2506 1.90461 28.5397 2.43227C28.7416 2.79934 28.8333 3.20312 28.9572 3.58854V3.59313ZM34.4036 3.74454C34.0182 3.74454 33.6374 3.74454 33.2519 3.73995C32.7289 3.49677 32.2287 3.29947 31.802 2.88193C31.747 2.82687 31.6919 2.76722 31.6414 2.71216C31.2009 2.3405 31.2835 1.92296 31.8938 1.46872C32.1645 1.47789 32.582 1.81284 32.7702 1.97802C33.3712 2.51945 33.8438 3.171 34.4082 3.74454H34.4036ZM23.8137 4.43738C23.855 4.43738 23.9009 4.43738 23.9422 4.43738C23.754 5.02011 23.5017 5.55694 23.0933 6.04331C22.8685 6.31402 22.607 6.57097 22.2995 6.74992C21.9049 6.98392 21.5195 7.16746 21.2167 6.76368C20.923 6.36908 21.1937 6.09378 21.5241 5.78636C21.781 5.54777 22.0885 5.36882 22.3867 5.18988C22.8455 4.91916 23.3227 4.65763 23.8091 4.4328L23.8137 4.43738ZM19.1382 4.39609C19.2942 4.39609 19.4547 4.39609 19.6108 4.39609C19.6383 4.39609 19.6704 4.39609 19.6979 4.39609C19.3905 4.89163 19.0372 5.35506 18.6197 5.77718C18.3352 6.06166 18.0324 6.34614 17.6974 6.56638C17.4863 6.71321 17.2615 6.83251 17.0137 6.91969C16.4218 6.50214 16.2888 6.14884 16.6054 5.85519C17.0917 5.09811 18.1608 4.6668 19.1382 4.39609ZM3.85892 3.91431C3.73045 3.95561 3.69833 4.10243 3.76256 4.19879C3.49185 4.29056 3.21655 4.37774 2.92748 4.4328C2.61548 4.49244 2.30347 4.52915 1.98687 4.53833C1.38579 4.55209 1.45003 4.59339 1.09673 3.97396C0.610363 3.54724 0.651658 3.31324 1.21144 3.26735C1.36285 3.25359 1.51886 3.24441 1.67027 3.23065C2.00981 3.23523 2.34017 3.31783 2.66136 3.41418C3.0789 3.53807 3.47809 3.70325 3.85892 3.90972V3.91431ZM31.3202 6.6765C30.9532 6.36449 30.9578 6.07084 31.3294 5.79554C31.4992 5.60283 31.6873 5.43306 31.8938 5.28623C32.2654 5.02469 32.683 4.84116 33.1143 4.70351C33.4905 4.58421 33.8805 4.50621 34.2706 4.44197C34.4678 4.44197 34.6606 4.44197 34.8579 4.44197C34.4311 4.96046 34.009 5.48353 33.5502 5.97448C33.2841 6.26355 32.995 6.54344 32.6646 6.75909C32.4581 6.90133 32.2379 7.00686 31.9993 7.08487C31.6093 7.29134 31.3845 7.15828 31.3156 6.6765H31.3202Z" fill="black"/>
</svg>
