<svg width="37" height="8" viewBox="0 0 37 8" fill="none" xmlns="http://www.w3.org/2000/svg">
<path d="M32.4765 7.18624C33.7567 6.67235 34.7019 5.28666 35.5828 4.29558C35.6333 4.24052 35.6516 4.18087 35.6608 4.12122C35.6975 4.12122 35.7342 4.12122 35.7755 4.12122C35.9958 4.12122 36.1059 3.95145 36.1059 3.78168C36.1059 3.61191 35.9958 3.44215 35.7755 3.44215C35.6149 3.44215 35.4589 3.44215 35.2983 3.44215C34.5504 2.67589 33.853 1.73528 33.0225 1.07455C32.4811 0.643247 31.5955 0.308297 30.9853 0.817604C29.9988 1.64351 31.1505 2.84107 32.2287 3.42838C31.3707 3.42838 30.5127 3.4192 29.6593 3.4192C29.5537 2.45565 28.9572 1.43244 28.2506 0.826781C27.6863 0.345004 26.7502 -0.34325 26.0069 0.198176C25.2498 0.753367 25.8601 1.74445 26.3098 2.26753C26.6998 2.72177 27.2412 3.16684 27.8377 3.42379C26.4841 3.42379 25.1351 3.43297 23.7816 3.44215C23.988 2.56577 23.2493 1.4508 22.6804 0.840547C22.2261 0.354181 21.2993 -0.123009 20.6661 0.358769C19.909 0.932313 20.6844 1.98305 21.1662 2.4373C21.6434 2.88695 22.194 3.24943 22.8088 3.44673C21.9967 3.45132 21.18 3.4605 20.3678 3.46968C20.2715 3.41003 20.1522 3.39626 20.0604 3.46968C20.0191 3.46968 19.9778 3.46968 19.9319 3.46968C19.8723 3.46968 19.8126 3.46968 19.753 3.46968C19.7576 3.43297 19.7576 3.39167 19.7484 3.34579C19.5052 2.36847 18.9959 1.35444 18.0828 0.849723C17.5185 0.537714 16.5228 0.322062 16.0272 0.891018C15.2105 1.83622 16.9862 2.9879 18.2664 3.46968C17.3349 3.46968 16.3989 3.46968 15.4629 3.46509C15.495 3.36414 15.4721 3.24485 15.3528 3.19437C15.3023 3.17143 15.2518 3.16226 15.2013 3.13931C14.871 2.51988 14.3846 1.96928 13.8157 1.5701C13.2742 1.18926 12.3611 0.753368 11.7784 1.29479C11.2554 1.77657 11.5674 2.58871 12.0904 2.92825C12.4575 3.16684 12.9117 3.23567 13.3293 3.32744C13.5174 3.36873 13.7101 3.41461 13.9074 3.45591C12.7557 3.44673 11.6041 3.44215 10.457 3.44215C10.457 3.40085 10.434 3.36873 10.4065 3.33661C10.0486 2.5933 9.51178 1.87293 8.81893 1.42327C8.41057 1.15714 7.36901 0.679953 6.94688 1.15255C6.52476 1.62974 7.0983 2.38223 7.47913 2.6713C7.95174 3.03378 8.57116 3.27696 9.19059 3.44673C7.6122 3.45591 6.0338 3.48803 4.45999 3.55685C4.45999 3.51097 4.43705 3.46509 4.39117 3.42838C3.66162 2.85942 2.58336 2.51989 1.65651 2.50612C1.05084 2.50153 0.11482 2.72636 0.0138762 3.45132C-0.266014 5.43808 3.77174 4.47911 4.58388 4.0111C4.59764 4.00193 4.60682 3.99275 4.616 3.98357C5.79062 4.03404 6.96524 4.06157 8.13986 4.07993C7.91962 4.20381 7.72232 4.3277 7.5709 4.42864C6.979 4.81865 6.02921 5.62161 6.35957 6.44752C6.74041 7.38813 8.02515 6.87424 8.58952 6.44752C9.35118 5.86939 9.98897 5.01595 10.2826 4.09828C11.3701 4.09828 12.4575 4.09828 13.5495 4.0891C13.0035 4.33229 12.4896 4.62594 12.0629 4.97466C11.5995 5.35549 10.9158 6.10798 11.3701 6.732C11.8518 7.39272 12.898 7.03942 13.4624 6.70447C14.4626 6.11257 15.0866 5.08937 15.5959 4.07993C15.5959 4.07993 15.5959 4.07993 15.5959 4.07534C16.4127 4.07075 17.234 4.07075 18.0507 4.07075C17.6699 4.2084 17.3074 4.39194 16.9633 4.62594C16.3989 5.01136 15.4078 5.8648 15.7382 6.66317C16.1144 7.57167 17.3854 7.11283 17.9635 6.72741C18.9592 6.0621 19.7438 5.1169 20.3311 4.07993C21.157 4.0891 21.9829 4.09369 22.8088 4.10287C22.2032 4.35523 21.625 4.66265 21.1524 5.09854C20.689 5.52067 20.1155 6.43375 20.6982 6.98895C21.3543 7.61296 22.4509 7.11742 23.0199 6.63105C23.7403 6.01163 24.3413 5.0756 24.5203 4.11663C25.6031 4.12581 26.686 4.12581 27.7689 4.1304C27.333 4.31393 26.9154 4.52959 26.5392 4.77736C25.8876 5.20408 25.3278 6.09422 25.8647 6.83753C26.4474 7.6359 27.6587 7.26425 28.2965 6.75494C29.0949 6.11716 29.5216 5.08937 29.8657 4.13958C30.7375 4.13958 31.6139 4.1304 32.4857 4.1304C32.1094 4.27723 31.7515 4.46535 31.4258 4.71771C30.866 5.1536 30.1043 6.00704 30.4622 6.77788C30.8109 7.53037 31.8387 7.43861 32.4673 7.18166L32.4765 7.18624ZM29.2096 4.14416C29.0077 4.65806 28.7829 5.17654 28.4755 5.63079C28.2506 5.96574 27.9707 6.27316 27.6083 6.46129C27.388 6.58517 27.1494 6.64941 26.8971 6.654C26.6309 6.69529 26.4933 6.56682 26.4795 6.27775C26.2593 6.01621 26.2868 5.77303 26.5667 5.53902C26.7135 5.3922 26.8741 5.2729 27.0531 5.17196C27.3238 5.00678 27.622 4.87371 27.9019 4.73147C28.3332 4.51582 28.7645 4.31393 29.2096 4.13958V4.14416ZM8.99329 4.09828C9.25024 4.09828 9.5026 4.09828 9.75955 4.10287C9.53472 4.57088 9.28695 5.02054 8.93823 5.41973C8.70881 5.68126 8.44728 5.93821 8.15821 6.13092C7.99762 6.24104 7.82326 6.33281 7.63973 6.39705C7.31395 6.58058 7.13042 6.47505 7.08912 6.08045C6.81841 5.82809 6.823 5.59867 7.10289 5.38761C7.19466 5.27749 7.29101 5.17196 7.39654 5.0756C7.6489 4.84159 7.93797 4.65806 8.23621 4.49288C8.40598 4.40111 8.68587 4.24052 8.9887 4.09369L8.99329 4.09828ZM14.8664 4.0891C14.6003 4.58465 14.3066 5.06642 13.935 5.48855C13.7055 5.75009 13.4532 5.98868 13.1595 6.17222C12.9806 6.29152 12.7879 6.38328 12.586 6.44752C12.3153 6.59435 12.1776 6.47046 12.1776 6.08045C11.9253 5.83727 11.9207 5.63997 12.1638 5.48396C12.3244 5.32796 12.4988 5.19031 12.6869 5.07101C12.9668 4.88748 13.2696 4.73147 13.5679 4.58465C13.9671 4.39194 14.38 4.23593 14.793 4.07993C14.8205 4.07993 14.8434 4.07993 14.871 4.07993L14.8664 4.0891ZM9.91555 3.1852C9.48883 3.07508 9.0667 2.96037 8.65375 2.80895C8.3968 2.71718 8.13527 2.62083 7.90126 2.48318C7.68102 2.36847 7.50208 2.20329 7.36443 1.99681C7.33231 1.49209 7.46537 1.29938 7.77738 1.41409C8.72258 1.40033 9.38789 2.396 9.91555 3.1852ZM14.6553 2.97872C14.2745 2.88695 13.8845 2.82272 13.5082 2.7493C13.2375 2.69424 12.9439 2.65754 12.6823 2.55659C12.1822 2.36388 11.861 1.71233 12.586 1.63892C13.1503 1.58386 13.8661 2.15282 14.2378 2.51071C14.3892 2.65754 14.5269 2.81813 14.6599 2.98331L14.6553 2.97872ZM19.106 3.37332C18.7711 3.18061 18.3765 3.08425 18.0278 2.91907C17.5185 2.68048 17.0183 2.38223 16.6467 1.95552C16.3071 1.68022 16.3576 1.3728 16.7981 1.03326C16.977 1.02408 17.156 1.04702 17.3303 1.10208C17.6745 1.20303 17.9911 1.41409 18.2434 1.66645C18.7114 2.13905 18.9225 2.75389 19.1106 3.37332H19.106ZM23.1346 3.13931C22.7171 2.97413 22.3179 2.77225 21.96 2.48318C21.6159 2.20329 20.5238 1.07914 21.1891 0.771721C21.7902 0.491831 22.4877 1.57927 22.7125 1.97846C22.9144 2.34094 22.9924 2.75848 23.1346 3.13931ZM28.9572 3.27696C28.3745 2.9879 27.7643 2.79519 27.255 2.37306C26.8879 2.07023 25.5527 0.496419 26.8145 0.615716C27.466 0.679953 28.2506 1.58845 28.5397 2.11611C28.7416 2.48318 28.8333 2.88695 28.9572 3.27238V3.27696ZM34.4036 3.42838C34.0182 3.42838 33.6374 3.42838 33.2519 3.42379C32.7289 3.18061 32.2287 2.98331 31.802 2.56577C31.747 2.51071 31.6919 2.45106 31.6414 2.396C31.2009 2.02434 31.2835 1.6068 31.8938 1.15255C32.1645 1.16173 32.582 1.49668 32.7702 1.66186C33.3712 2.20329 33.8438 2.85484 34.4082 3.42838H34.4036ZM23.8137 4.12122C23.855 4.12122 23.9009 4.12122 23.9422 4.12122C23.754 4.70394 23.5017 5.24078 23.0933 5.72715C22.8685 5.99786 22.607 6.25481 22.2995 6.43375C21.9049 6.66776 21.5195 6.85129 21.2167 6.44752C20.923 6.05292 21.1937 5.77762 21.5241 5.4702C21.781 5.23161 22.0885 5.05266 22.3867 4.87371C22.8455 4.603 23.3227 4.34146 23.8091 4.11663L23.8137 4.12122ZM19.1382 4.07993C19.2942 4.07993 19.4547 4.07993 19.6108 4.07993C19.6383 4.07993 19.6704 4.07993 19.6979 4.07993C19.3905 4.57547 19.0372 5.03889 18.6197 5.46102C18.3352 5.7455 18.0324 6.02998 17.6974 6.25022C17.4863 6.39705 17.2615 6.51634 17.0137 6.60352C16.4218 6.18598 16.2888 5.83268 16.6054 5.53902C17.0917 4.78195 18.1608 4.35064 19.1382 4.07993ZM3.85892 3.59815C3.73045 3.63944 3.69833 3.78627 3.76256 3.88263C3.49185 3.97439 3.21655 4.06157 2.92748 4.11663C2.61548 4.17628 2.30347 4.21299 1.98687 4.22217C1.38579 4.23593 1.45003 4.27723 1.09673 3.6578C0.610363 3.23108 0.651658 2.99707 1.21144 2.95119C1.36285 2.93743 1.51886 2.92825 1.67027 2.91448C2.00981 2.91907 2.34017 3.00166 2.66136 3.09802C3.0789 3.2219 3.47809 3.38709 3.85892 3.59356V3.59815ZM31.3202 6.36034C30.9532 6.04833 30.9578 5.75468 31.3294 5.47938C31.4992 5.28667 31.6873 5.1169 31.8938 4.97007C32.2654 4.70853 32.683 4.525 33.1143 4.38735C33.4905 4.26805 33.8805 4.19005 34.2706 4.12581C34.4679 4.12581 34.6606 4.12581 34.8579 4.12581C34.4311 4.6443 34.009 5.16737 33.5502 5.65832C33.2841 5.94739 32.995 6.22728 32.6646 6.44293C32.4582 6.58517 32.2379 6.6907 31.9993 6.7687C31.6093 6.97518 31.3845 6.84212 31.3156 6.36034H31.3202Z" fill="#4F1E8B"/>
</svg>
