<svg width="37" height="8" viewBox="0 0 37 8" fill="none" xmlns="http://www.w3.org/2000/svg">
<path d="M5.64368 6.77785C6.00157 6.007 5.23532 5.15357 4.68013 4.71767C4.35435 4.46072 3.99646 4.27719 3.62021 4.13036C4.492 4.13036 5.36838 4.14413 6.24017 4.13954C6.58429 5.08933 7.01101 6.11253 7.80938 6.7549C8.44716 7.26421 9.65849 7.63587 10.2412 6.83749C10.7826 6.09877 10.2229 5.20404 9.56672 4.77732C9.19048 4.52955 8.77294 4.3139 8.33705 4.13036C9.4199 4.13036 10.5028 4.13036 11.5856 4.1166C11.7646 5.07556 12.3656 6.01159 13.086 6.63102C13.655 7.11738 14.7516 7.61293 15.4077 6.98891C15.995 6.42913 15.4169 5.52063 14.9535 5.09851C14.4763 4.6672 13.8981 4.35519 13.2971 4.10283C14.123 4.09824 14.9489 4.08907 15.7748 4.07989C16.3575 5.11686 17.1421 6.06206 18.1424 6.72737C18.7205 7.1128 19.9915 7.57163 20.3677 6.66314C20.6981 5.86476 19.7024 5.00674 19.1426 4.6259C18.7985 4.3919 18.4314 4.21295 18.0552 4.07071C18.8719 4.07071 19.6886 4.07071 20.51 4.0753C20.51 4.0753 20.51 4.0753 20.51 4.07989C21.0239 5.08933 21.6433 6.11253 22.6435 6.70443C23.2079 7.03938 24.2541 7.39268 24.7358 6.73196C25.1901 6.10794 24.5064 5.35087 24.043 4.97462C23.6209 4.6259 23.1024 4.32766 22.5564 4.08907C23.6438 4.09824 24.7312 4.10283 25.8233 4.09824C26.1169 5.0205 26.7547 5.86935 27.5164 6.44748C28.0808 6.8742 29.3655 7.3881 29.7463 6.44748C30.0813 5.62158 29.1315 4.8232 28.535 4.42861C28.3836 4.32766 28.1863 4.20378 27.966 4.07989C29.1407 4.06613 30.3199 4.03401 31.4899 3.98353C31.4991 3.99271 31.5083 4.00648 31.522 4.01107C32.3342 4.47908 36.3673 5.43804 36.092 3.45129C35.9911 2.72174 35.0551 2.49691 34.4494 2.50608C33.5225 2.51526 32.4443 2.8548 31.7147 3.42834C31.6688 3.46505 31.6459 3.51093 31.6459 3.55682C30.0721 3.48799 28.4937 3.45587 26.9153 3.4467C27.5347 3.27693 28.1542 3.03375 28.6268 2.67127C29.003 2.3822 29.5811 1.62971 29.159 1.15252C28.7369 0.675329 27.6999 1.15711 27.287 1.42323C26.5941 1.87289 26.0573 2.58867 25.6994 3.33658C25.6719 3.36411 25.6535 3.40081 25.6489 3.44211C24.4972 3.44211 23.3502 3.4467 22.1985 3.45587C22.3912 3.40999 22.5839 3.36411 22.7766 3.3274C23.1987 3.24022 23.6484 3.16681 24.0155 2.92821C24.5385 2.59326 24.846 1.77654 24.3275 1.29476C23.7402 0.753331 22.8271 1.18922 22.2902 1.57006C21.7259 1.96925 21.2395 2.52444 20.9046 3.13928C20.8541 3.15763 20.8036 3.1714 20.7531 3.19434C20.6338 3.24481 20.6109 3.35952 20.643 3.46505C19.707 3.46964 18.7756 3.47423 17.8395 3.46964C19.1151 2.98786 20.8954 1.83618 20.0787 0.890982C19.5877 0.322025 18.5874 0.537678 18.0231 0.849686C17.11 1.35441 16.6007 2.36843 16.3575 3.34575C16.3483 3.39164 16.3483 3.42834 16.3529 3.46964C16.2933 3.46964 16.2336 3.46964 16.174 3.46964C16.1327 3.46964 16.0914 3.46964 16.0455 3.46964C15.9537 3.39623 15.8298 3.4054 15.7381 3.46964C14.9259 3.46046 14.1092 3.45587 13.2971 3.4467C13.9119 3.2494 14.4625 2.88233 14.9397 2.43726C15.4261 1.98301 16.2015 0.932277 15.4398 0.358732C14.8066 -0.118457 13.8798 0.354143 13.4255 0.840509C12.8566 1.45076 12.1179 2.56573 12.3243 3.44211C10.9708 3.43293 9.62178 3.42834 8.26822 3.42376C8.86471 3.16681 9.40613 2.72174 9.79614 2.26749C10.2458 1.74442 10.8561 0.753331 10.099 0.198139C9.35566 -0.347875 8.41964 0.340379 7.85527 0.826745C7.15325 1.42782 6.55217 2.45102 6.44664 3.41917C5.58862 3.41917 4.7306 3.42834 3.87716 3.42834C4.96002 2.83645 6.10711 1.64347 5.12061 0.817568C4.51036 0.30826 3.6248 0.64321 3.08338 1.07452C2.25288 1.73524 1.55545 2.67585 0.807552 3.44211C0.646959 3.44211 0.490955 3.44211 0.330362 3.44211C0.110121 3.44211 0 3.61188 0 3.78165C0 3.95142 0.110121 4.12119 0.330362 4.12119C0.367069 4.12119 0.403776 4.12119 0.445071 4.12119C0.454248 4.18083 0.472601 4.24048 0.523072 4.29554C1.40404 5.29122 2.34924 6.67231 3.62939 7.18621C4.26259 7.43857 5.28579 7.53492 5.6345 6.78243L5.64368 6.77785ZM8.21775 4.73144C8.50222 4.87368 8.80047 5.00215 9.0666 5.17192C9.24554 5.27286 9.40613 5.39216 9.55296 5.53899C9.83285 5.76841 9.86038 6.01618 9.64014 6.27771C9.62638 6.57137 9.48872 6.69525 9.2226 6.65396C8.97024 6.64937 8.73164 6.58513 8.5114 6.46125C8.14892 6.27313 7.86903 5.96112 7.6442 5.63076C7.33678 5.17192 7.11196 4.65802 6.91007 4.14413C7.35514 4.3139 7.79103 4.52037 8.21775 4.73603V4.73144ZM27.8743 4.49284C28.1771 4.65802 28.4616 4.84156 28.7139 5.07556C28.8195 5.17192 28.9158 5.27745 29.0076 5.38757C29.2875 5.59864 29.2921 5.82806 29.0214 6.08042C28.9801 6.4796 28.7965 6.58513 28.4708 6.39701C28.2826 6.33277 28.1129 6.24101 27.9523 6.13089C27.6632 5.93818 27.4017 5.68123 27.1723 5.41969C26.8235 5.0205 26.5758 4.57084 26.3509 4.10283C26.6079 4.10283 26.8602 4.10283 27.1172 4.09824C27.42 4.24507 27.6999 4.40108 27.8697 4.49743L27.8743 4.49284ZM21.3221 4.08448C21.7351 4.23589 22.148 4.39649 22.5472 4.5892C22.85 4.73603 23.1483 4.88744 23.4282 5.07556C23.6163 5.19486 23.7906 5.33251 23.9512 5.48852C24.1944 5.63993 24.1898 5.84182 23.9375 6.085C23.9375 6.47501 23.7998 6.5989 23.5291 6.45207C23.3226 6.38783 23.1345 6.29148 22.9556 6.17677C22.6619 5.98865 22.4095 5.75005 22.1801 5.4931C21.8085 5.07098 21.5148 4.5892 21.2487 4.09366C21.2762 4.09366 21.2992 4.09366 21.3267 4.09366L21.3221 4.08448ZM28.3377 1.40947C28.6451 1.29476 28.7828 1.48747 28.7506 1.99219C28.613 2.19866 28.4341 2.36385 28.2138 2.47855C27.9798 2.6162 27.7183 2.71256 27.4613 2.80433C27.0484 2.95574 26.6262 3.07045 26.1995 3.18057C26.7272 2.39137 27.3925 1.3957 28.3377 1.40947ZM21.8819 2.5015C22.2535 2.1436 22.9693 1.57465 23.5337 1.62971C24.2632 1.70312 23.9421 2.35467 23.4373 2.54738C23.1758 2.64832 22.8821 2.68503 22.6114 2.74009C22.2306 2.81809 21.8406 2.88233 21.4643 2.96951C21.5974 2.80433 21.7351 2.64373 21.8865 2.49691L21.8819 2.5015ZM17.8762 1.66183C18.1286 1.40947 18.4406 1.1984 18.7893 1.09746C18.9637 1.0424 19.1426 1.01946 19.3216 1.02863C19.7621 1.36817 19.8125 1.67559 19.473 1.95089C19.0967 2.37761 18.6012 2.67585 18.0919 2.91445C17.7386 3.07963 17.3486 3.17598 17.0136 3.36869C17.2018 2.74927 17.4128 2.12984 17.8808 1.66183H17.8762ZM13.4026 1.97842C13.6274 1.58382 14.3203 0.496383 14.9259 0.771684C15.5912 1.0791 14.5038 2.20325 14.1551 2.48314C13.7972 2.77221 13.398 2.9741 12.9805 3.13928C13.1273 2.75844 13.2007 2.3409 13.4026 1.97842ZM7.57538 2.11607C7.86445 1.58841 8.65364 0.675329 9.3006 0.61568C10.567 0.496383 9.23178 2.0656 8.86012 2.37302C8.34622 2.79515 7.74056 2.98786 7.15784 3.27693C7.28172 2.88692 7.37349 2.48314 7.57538 2.12066V2.11607ZM3.34491 1.65724C3.52845 1.49206 3.94599 1.15711 4.22129 1.14793C4.82695 1.60218 4.91413 2.01972 4.47365 2.39137C4.41859 2.44644 4.36353 2.50608 4.31306 2.56114C3.88634 2.97868 3.38621 3.17598 2.86314 3.41917C2.47772 3.41917 2.09688 3.41917 1.71146 3.42376C2.27583 2.85021 2.74843 2.19866 3.3495 1.65724H3.34491ZM13.7238 4.87368C14.022 5.04803 14.334 5.23157 14.5864 5.47016C14.9168 5.77758 15.1875 6.0483 14.8938 6.44748C14.591 6.85126 14.2101 6.66773 13.811 6.43372C13.5035 6.25477 13.242 5.99782 13.0172 5.72711C12.6088 5.24075 12.3564 4.70391 12.1683 4.12119C12.2096 4.12119 12.2555 4.12119 12.2968 4.12119C12.7832 4.34602 13.2558 4.60755 13.7192 4.87826L13.7238 4.87368ZM19.5097 5.53899C19.8263 5.83264 19.6886 6.18595 19.1013 6.60349C18.8581 6.51631 18.6287 6.4016 18.4177 6.25018C18.0827 6.02535 17.7799 5.74546 17.4954 5.46099C17.0779 5.03886 16.7246 4.57543 16.4171 4.07989C16.4447 4.07989 16.4768 4.07989 16.5043 4.07989C16.6603 4.07989 16.8209 4.07989 16.9769 4.07989C17.9542 4.35519 19.0233 4.7865 19.5097 5.53899ZM33.4537 3.10257C33.7749 3.00621 34.1098 2.92362 34.4448 2.91904C34.5962 2.9328 34.7522 2.94198 34.9036 2.95574C35.468 3.00163 35.5047 3.23563 35.0183 3.66235C34.6605 4.28178 34.7293 4.24048 34.1282 4.22672C33.8116 4.21754 33.495 4.18083 33.1876 4.12119C32.8985 4.06613 32.6232 3.97895 32.3525 3.88718C32.4167 3.79082 32.3846 3.644 32.2562 3.6027C32.637 3.40081 33.0362 3.23104 33.4537 3.10716V3.10257ZM4.11117 6.75949C3.87257 6.68149 3.65233 6.57137 3.44586 6.43372C3.1155 6.21807 2.82643 5.93817 2.5603 5.64911C2.10147 5.15815 1.68393 4.63049 1.25262 4.1166C1.44992 4.1166 1.64263 4.1166 1.83993 4.1166C2.22994 4.18083 2.61995 4.25884 2.9962 4.37813C3.4275 4.51578 3.84963 4.69473 4.2167 4.96086C4.42777 5.10768 4.61589 5.27745 4.78107 5.47016C5.15273 5.74546 5.15731 6.03912 4.79025 6.35113C4.72142 6.82832 4.49659 6.96597 4.10658 6.75949H4.11117Z" fill="#4F1E8B"/>
</svg>
