<svg width="37" height="8" viewBox="0 0 37 8" fill="none" xmlns="http://www.w3.org/2000/svg">
<path d="M5.74964 7.09401C6.10753 6.32316 5.34128 5.46973 4.78608 5.03383C4.46031 4.77689 4.10242 4.59335 3.72617 4.44652C4.59796 4.44652 5.47433 4.46029 6.34612 4.4557C6.69025 5.40549 7.11697 6.42869 7.91534 7.07106C8.55312 7.58037 9.76445 7.95203 10.3472 7.15366C10.8886 6.41493 10.3288 5.5202 9.67268 5.09348C9.29644 4.84571 8.8789 4.63006 8.44301 4.44652C9.52586 4.44652 10.6087 4.44652 11.6916 4.43276C11.8705 5.39173 12.4716 6.32775 13.192 6.94718C13.7609 7.43355 14.8575 7.92909 15.5137 7.30507C16.101 6.74529 15.5228 5.8368 15.0594 5.41467C14.5822 4.98336 14.0041 4.67135 13.403 4.41899C14.2289 4.41441 15.0548 4.40523 15.8807 4.39605C16.4634 5.43302 17.2481 6.37822 18.2483 7.04354C18.8265 7.42896 20.0974 7.88779 20.4737 6.9793C20.804 6.18092 19.8084 5.3229 19.2486 4.94207C18.9045 4.70806 18.5374 4.52912 18.1611 4.38688C18.9779 4.38688 19.7946 4.38688 20.6159 4.39146C20.6159 4.39146 20.6159 4.39146 20.6159 4.39605C21.1298 5.40549 21.7492 6.4287 22.7495 7.02059C23.3139 7.35554 24.36 7.70885 24.8418 7.04812C25.296 6.42411 24.6124 5.66703 24.149 5.29078C23.7268 4.94207 23.2083 4.64382 22.6623 4.40523C23.7498 4.41441 24.8372 4.41899 25.9292 4.41441C26.2229 5.33667 26.8607 6.18551 27.6223 6.76365C28.1867 7.19036 29.4714 7.70426 29.8523 6.76365C30.1872 5.93774 29.2374 5.13937 28.6409 4.74477C28.4895 4.64382 28.2922 4.51994 28.072 4.39605C29.2466 4.38229 30.4258 4.35017 31.5959 4.2997C31.605 4.30887 31.6142 4.32264 31.628 4.32723C32.4401 4.79524 36.4733 5.75421 36.198 3.76745C36.097 3.0379 35.161 2.81307 34.5554 2.82225C33.6285 2.83142 32.5502 3.17096 31.8207 3.74451C31.7748 3.78121 31.7519 3.8271 31.7519 3.87298C30.1781 3.80415 28.5997 3.77204 27.0213 3.76286C27.6407 3.59309 28.2601 3.34991 28.7327 2.98743C29.109 2.69836 29.6871 1.94587 29.265 1.46868C28.8428 0.991491 27.8059 1.47327 27.3929 1.73939C26.7001 2.18905 26.1632 2.90484 25.8053 3.65274C25.7778 3.68027 25.7595 3.71698 25.7549 3.75827C24.6032 3.75827 23.4561 3.76286 22.3044 3.77204C22.4971 3.72615 22.6899 3.68027 22.8826 3.64356C23.3047 3.55638 23.7544 3.48297 24.1214 3.24437C24.6445 2.90942 24.9519 2.0927 24.4334 1.61092C23.8461 1.06949 22.933 1.50539 22.3962 1.88622C21.8318 2.28541 21.3455 2.8406 21.0105 3.45544C20.96 3.47379 20.9096 3.48756 20.8591 3.5105C20.7398 3.56097 20.7169 3.67568 20.749 3.78121C19.813 3.7858 18.8815 3.79039 17.9455 3.7858C19.2211 3.30402 21.0013 2.15235 20.1846 1.20714C19.6937 0.638187 18.6934 0.85384 18.129 1.16585C17.2159 1.67057 16.7066 2.6846 16.4635 3.66192C16.4543 3.7078 16.4543 3.74451 16.4589 3.7858C16.3992 3.7858 16.3396 3.7858 16.2799 3.7858C16.2386 3.7858 16.1973 3.7858 16.1514 3.7858C16.0597 3.71239 15.9358 3.72156 15.844 3.7858C15.0319 3.77662 14.2152 3.77204 13.403 3.76286C14.0179 3.56556 14.5685 3.19849 15.0457 2.75342C15.532 2.29917 16.3074 1.24844 15.5458 0.674894C14.9126 0.197705 13.9857 0.670306 13.5315 1.15667C12.9625 1.76692 12.2238 2.88189 12.4303 3.75827C11.0767 3.74909 9.72774 3.74451 8.37418 3.73992C8.97066 3.48297 9.51209 3.0379 9.9021 2.58365C10.3518 2.06058 10.962 1.06949 10.2049 0.514302C9.46162 -0.031713 8.52559 0.656541 7.96123 1.14291C7.25921 1.74398 6.65813 2.76719 6.5526 3.73533C5.69457 3.73533 4.83656 3.74451 3.98312 3.74451C5.06597 3.15261 6.21306 1.95963 5.22657 1.13373C4.61631 0.624422 3.73076 0.959372 3.18933 1.39068C2.35884 2.0514 1.66141 2.99201 0.913509 3.75827C0.752916 3.75827 0.596912 3.75827 0.436319 3.75827C0.216078 3.75827 0.105957 3.92804 0.105957 4.09781C0.105957 4.26758 0.216078 4.43735 0.436319 4.43735C0.473026 4.43735 0.509733 4.43735 0.551028 4.43735C0.560205 4.497 0.578558 4.55664 0.62903 4.61171C1.50999 5.60738 2.4552 6.98848 3.73535 7.50237C4.36854 7.75473 5.39174 7.85109 5.74046 7.0986L5.74964 7.09401ZM8.3237 5.0476C8.60818 5.18984 8.90643 5.31831 9.17255 5.48808C9.3515 5.58903 9.51209 5.70832 9.65892 5.85515C9.93881 6.08457 9.96634 6.33234 9.7461 6.59388C9.73233 6.88753 9.59468 7.01142 9.32856 6.97012C9.0762 6.96553 8.8376 6.9013 8.61736 6.77741C8.25488 6.58929 7.97499 6.27728 7.75016 5.94692C7.44274 5.48808 7.21791 4.97419 7.01603 4.46029C7.4611 4.63006 7.89699 4.83654 8.3237 5.05219V5.0476ZM27.9802 4.809C28.2831 4.97419 28.5675 5.15772 28.8199 5.39173C28.9254 5.48808 29.0218 5.59361 29.1136 5.70373C29.3934 5.9148 29.398 6.14422 29.1273 6.39658C29.086 6.79576 28.9025 6.9013 28.5767 6.71317C28.3886 6.64894 28.2188 6.55717 28.0582 6.44705C27.7692 6.25434 27.5076 5.99739 27.2782 5.73585C26.9295 5.33667 26.6817 4.88701 26.4569 4.41899C26.7138 4.41899 26.9662 4.41899 27.2231 4.41441C27.526 4.56123 27.8059 4.71724 27.9756 4.81359L27.9802 4.809ZM21.4281 4.40064C21.841 4.55206 22.254 4.71265 22.6531 4.90536C22.956 5.05219 23.2542 5.2036 23.5341 5.39173C23.7222 5.51102 23.8966 5.64867 24.0572 5.80468C24.3004 5.95609 24.2958 6.15798 24.0434 6.40116C24.0434 6.79117 23.9058 6.91506 23.6351 6.76823C23.4286 6.704 23.2405 6.60764 23.0615 6.49293C22.7679 6.30481 22.5155 6.06621 22.2861 5.80927C21.9144 5.38714 21.6208 4.90536 21.3546 4.40982C21.3822 4.40982 21.4051 4.40982 21.4326 4.40982L21.4281 4.40064ZM28.4437 1.72563C28.7511 1.61092 28.8887 1.80363 28.8566 2.30835C28.719 2.51483 28.54 2.68001 28.3198 2.79472C28.0858 2.93237 27.8242 3.02872 27.5673 3.12049C27.1543 3.2719 26.7322 3.38661 26.3055 3.49673C26.8331 2.70754 27.4985 1.71186 28.4437 1.72563ZM21.9878 2.81766C22.3595 2.45977 23.0753 1.89081 23.6396 1.94587C24.3692 2.01928 24.048 2.67083 23.5433 2.86354C23.2818 2.96449 22.9881 3.00119 22.7174 3.05625C22.3366 3.13425 21.9465 3.19849 21.5703 3.28567C21.7034 3.12049 21.841 2.9599 21.9924 2.81307L21.9878 2.81766ZM17.9822 1.97799C18.2346 1.72563 18.5466 1.51456 18.8953 1.41362C19.0696 1.35856 19.2486 1.33562 19.4275 1.34479C19.868 1.68433 19.9185 1.99175 19.5789 2.26705C19.2027 2.69377 18.7072 2.99201 18.1979 3.23061C17.8445 3.39579 17.4545 3.49215 17.1196 3.68486C17.3077 3.06543 17.5188 2.446 17.9868 1.97799H17.9822ZM13.5085 2.29458C13.7334 1.89999 14.4262 0.812545 15.0319 1.08785C15.6972 1.39527 14.6098 2.51941 14.261 2.7993C13.9031 3.08837 13.504 3.29026 13.0864 3.45544C13.2332 3.07461 13.3067 2.65707 13.5085 2.29458ZM7.68134 2.43224C7.9704 1.90457 8.7596 0.991491 9.40656 0.931842C10.6729 0.812545 9.33774 2.38176 8.96608 2.68918C8.45218 3.11131 7.84652 3.30402 7.26379 3.59309C7.38768 3.20308 7.47945 2.7993 7.68134 2.43682V2.43224ZM3.45087 1.9734C3.6344 1.80822 4.05195 1.47327 4.32725 1.46409C4.93291 1.91834 5.02009 2.33588 4.57961 2.70754C4.52455 2.7626 4.46949 2.82225 4.41901 2.87731C3.9923 3.29485 3.49217 3.49215 2.96909 3.73533C2.58367 3.73533 2.20284 3.73533 1.81742 3.73992C2.38178 3.16637 2.85438 2.51483 3.45546 1.9734H3.45087ZM13.8297 5.18984C14.128 5.3642 14.44 5.54773 14.6923 5.78632C15.0227 6.09374 15.2934 6.36446 14.9998 6.76365C14.6969 7.16742 14.3161 6.98389 13.9169 6.74988C13.6095 6.57093 13.348 6.31399 13.1231 6.04327C12.7148 5.55691 12.4624 5.02007 12.2743 4.43735C12.3156 4.43735 12.3615 4.43735 12.4028 4.43735C12.8891 4.66218 13.3617 4.92371 13.8251 5.19443L13.8297 5.18984ZM19.6157 5.85515C19.9322 6.14881 19.7946 6.50211 19.2073 6.91965C18.9641 6.83247 18.7347 6.71776 18.5236 6.56635C18.1887 6.34152 17.8858 6.06163 17.6014 5.77715C17.1838 5.35502 16.8305 4.8916 16.5231 4.39605C16.5506 4.39605 16.5828 4.39605 16.6103 4.39605C16.7663 4.39605 16.9269 4.39605 17.0829 4.39605C18.0602 4.67135 19.1293 5.10266 19.6157 5.85515ZM33.5597 3.41873C33.8809 3.32238 34.2158 3.23979 34.5508 3.2352C34.7022 3.24896 34.8582 3.25814 35.0096 3.2719C35.574 3.31779 35.6107 3.5518 35.1243 3.97851C34.7664 4.59794 34.8352 4.55665 34.2342 4.54288C33.9176 4.5337 33.601 4.497 33.2936 4.43735C33.0045 4.38229 32.7292 4.29511 32.4585 4.20334C32.5227 4.10699 32.4906 3.96016 32.3621 3.91886C32.7429 3.71698 33.1421 3.54721 33.5597 3.42332V3.41873ZM4.21712 7.07565C3.97853 6.99765 3.75829 6.88753 3.55181 6.74988C3.22145 6.53423 2.93239 6.25434 2.66626 5.96527C2.20743 5.47432 1.78989 4.94666 1.35858 4.43276C1.55588 4.43276 1.74859 4.43276 1.94589 4.43276C2.3359 4.497 2.72591 4.575 3.10215 4.6943C3.53346 4.83195 3.95559 5.01089 4.32266 5.27702C4.53372 5.42384 4.72185 5.59361 4.88703 5.78632C5.25869 6.06163 5.26327 6.35528 4.8962 6.66729C4.82738 7.14448 4.60255 7.28213 4.21254 7.07565H4.21712Z" fill="black"/>
</svg>
