<svg width="512" height="512" viewBox="0 0 512 512" fill="none" xmlns="http://www.w3.org/2000/svg">
<path d="M201.352 192.662C208.263 192.662 214.138 193.641 218.976 195.599C223.814 197.557 228.537 200.322 233.144 203.893C234.411 204.93 235.506 205.448 236.427 205.448C238.731 205.448 240.229 201.992 240.92 195.081H244.894C244.433 202.568 244.203 215.815 244.203 234.821H240.229C238.961 227.334 237.81 221.978 236.773 218.752C235.736 215.412 234.008 212.244 231.589 209.249C228.134 204.757 223.699 201.416 218.285 199.228C212.986 196.924 207.227 195.772 201.007 195.772C193.519 195.772 186.953 198.249 181.309 203.202C175.78 208.155 171.46 215.239 168.35 224.454C165.24 233.554 163.685 244.267 163.685 256.592C163.685 269.148 165.355 279.918 168.696 288.903C172.036 297.887 176.644 304.741 182.519 309.464C188.508 314.072 195.247 316.375 202.734 316.375C208.494 316.375 214.081 315.281 219.494 313.092C224.908 310.904 229.17 307.621 232.28 303.244C234.584 300.018 236.254 296.563 237.291 292.877C238.328 289.191 239.307 283.546 240.229 275.944H244.203C244.203 295.756 244.433 309.579 244.894 317.412H240.92C240.574 313.726 240.056 311.134 239.365 309.637C238.789 308.024 237.925 307.218 236.773 307.218C235.851 307.218 234.642 307.679 233.144 308.6C227.961 312.286 223.008 315.108 218.285 317.066C213.562 318.91 207.86 319.831 201.179 319.831C190.236 319.831 180.618 317.354 172.324 312.401C164.146 307.448 157.753 300.306 153.145 290.976C148.653 281.531 146.407 270.3 146.407 257.283C146.407 244.612 148.711 233.381 153.318 223.59C158.041 213.799 164.549 206.197 172.843 200.783C181.252 195.369 190.755 192.662 201.352 192.662Z" fill="black"/>
<path d="M282.69 346.688L277.291 346.688L277.291 165.805L282.69 165.805L282.69 346.688Z" fill="black"/>
<path d="M403.553 295.296C403.553 301.861 403.956 309.234 404.762 317.412C396.929 317.066 383.74 316.894 365.195 316.894C343.078 316.894 326.376 317.066 315.087 317.412V313.956C319.234 313.726 322.229 313.265 324.072 312.574C326.03 311.883 327.355 310.558 328.046 308.6C328.737 306.642 329.083 303.474 329.083 299.097V213.396C329.083 209.019 328.737 205.851 328.046 203.893C327.355 201.935 326.03 200.61 324.072 199.919C322.229 199.228 319.234 198.767 315.087 198.536V195.081C326.376 195.426 343.078 195.599 365.195 195.599C382.128 195.599 394.165 195.426 401.307 195.081C400.5 202.683 400.097 209.479 400.097 215.469C400.097 219.962 400.27 223.533 400.616 226.182H396.641C395.835 218.695 394.798 213.166 393.531 209.595C392.264 205.909 390.133 203.259 387.138 201.647C384.143 199.919 379.593 199.055 373.488 199.055H359.147C355.001 199.055 351.948 199.4 349.99 200.092C348.147 200.667 346.88 201.935 346.189 203.893C345.497 205.851 345.152 209.019 345.152 213.396V254.173H356.556C360.587 254.173 363.697 253.251 365.886 251.408C368.075 249.45 369.514 247.204 370.206 244.67C371.012 242.02 371.645 238.738 372.106 234.821L372.625 231.365H376.599C376.253 236.203 376.08 241.617 376.08 247.607V255.901C376.08 261.775 376.426 269.954 377.117 280.436H373.143C373.028 279.63 372.682 276.865 372.106 272.143C371.53 267.305 369.918 263.676 367.268 261.257C364.734 258.838 361.163 257.629 356.556 257.629H345.152V299.097C345.152 303.474 345.497 306.642 346.189 308.6C346.88 310.558 348.147 311.883 349.99 312.574C351.948 313.15 355.001 313.438 359.147 313.438H371.761C378.902 313.438 384.316 312.516 388.002 310.673C391.804 308.715 394.568 305.663 396.296 301.516C398.024 297.254 399.291 291.034 400.097 282.855H404.071C403.726 285.965 403.553 290.112 403.553 295.296Z" fill="black"/>
<path d="M484.538 269.811L485.812 269.89C481.139 343.299 438.785 406.472 377.869 440.32L376.628 438.091C436.811 404.65 478.648 342.24 483.265 269.729L484.538 269.811ZM256.342 49.3881C215.905 53.1104 178.82 68.3956 148.429 91.9052L146.868 89.8881C177.631 66.091 215.173 50.6161 256.107 46.848L256.342 49.3881Z" fill="black"/>
<path d="M474.61 240.848C474.485 239.204 474.752 237.676 475.411 236.262C476.087 234.848 477.08 233.69 478.392 232.789C479.722 231.904 481.251 231.395 482.979 231.263C484.707 231.131 486.287 231.403 487.718 232.078C489.168 232.768 490.326 233.762 491.192 235.059C492.074 236.355 492.578 237.824 492.704 239.468C492.83 241.128 492.556 242.665 491.88 244.08C491.221 245.494 490.235 246.642 488.922 247.526C487.609 248.41 486.08 248.919 484.335 249.052C482.59 249.185 481.002 248.914 479.57 248.24C478.139 247.565 476.981 246.58 476.099 245.284C475.233 243.987 474.737 242.508 474.61 240.848ZM476.618 240.695C476.712 241.931 477.085 243.019 477.736 243.958C478.388 244.913 479.269 245.63 480.379 246.108C481.49 246.602 482.749 246.796 484.155 246.689C485.578 246.58 486.793 246.198 487.799 245.542C488.824 244.901 489.587 244.068 490.088 243.041C490.589 242.015 490.792 240.874 490.696 239.621C490.601 238.367 490.227 237.271 489.576 236.332C488.925 235.394 488.044 234.677 486.933 234.182C485.84 233.703 484.582 233.518 483.159 233.627C481.753 233.734 480.537 234.108 479.513 234.748C478.489 235.406 477.727 236.248 477.226 237.274C476.726 238.318 476.523 239.458 476.618 240.695Z" fill="black"/>
<path d="M474.354 220.253L475.712 228.811L473.723 229.127L471.934 217.85L473.746 217.562L488.84 223.89L487.506 215.482L489.495 215.167L491.26 226.293L489.448 226.58L474.354 220.253Z" fill="black"/>
<path d="M485.731 199.352L474.82 202.048C473.286 202.427 472.24 203.08 471.681 204.005C471.126 204.948 471.014 206.087 471.344 207.423C471.67 208.742 472.296 209.682 473.221 210.24C474.151 210.816 475.383 210.914 476.917 210.535L487.828 207.839L488.385 210.09L477.498 212.78C476.063 213.135 474.779 213.146 473.647 212.813C472.531 212.476 471.612 211.872 470.889 211.001C470.17 210.146 469.66 209.108 469.358 207.887C469.057 206.667 469.023 205.502 469.257 204.394C469.495 203.303 470.029 202.348 470.859 201.531C471.71 200.725 472.853 200.145 474.288 199.791L485.175 197.101L485.731 199.352Z" fill="black"/>
<path d="M483.274 191.416L466.643 197.286L465.871 195.099L478.272 190.722L463.92 189.572L463.377 188.034L473.842 178.096L461.417 182.482L460.645 180.295L477.276 174.425L478.107 176.78L466.532 187.785L482.451 189.085L483.274 191.416Z" fill="black"/>
<path d="M461.349 172.203L458.027 165.204L453.846 165.608L452.797 163.398L471.507 161.626L472.655 164.044L459.442 177.397L458.393 175.186L461.349 172.203ZM462.769 170.796L469.497 164.048L460.015 164.993L462.769 170.796Z" fill="black"/>
<path d="M466.308 151.557L451.181 160.626L449.989 158.637L461.268 151.875L446.975 153.609L446.136 152.21L454.41 140.386L443.109 147.161L441.916 145.172L457.042 136.103L458.327 138.245L449.178 151.337L465.036 149.437L466.308 151.557Z" fill="black"/>
<path d="M448.2 126.677L443.418 130.197L447.255 135.411L445.715 136.544L441.878 131.33L436.952 134.956L441.242 140.785L439.703 141.918L434.038 134.221L448.365 123.676L454.03 131.374L452.491 132.507L448.2 126.677Z" fill="black"/>
<path d="M433.407 106.437C434.727 107.855 435.599 109.33 436.025 110.86C436.474 112.391 436.462 113.887 435.988 115.349C435.526 116.823 434.63 118.179 433.299 119.417C431.967 120.655 430.55 121.452 429.046 121.806C427.567 122.161 426.08 122.059 424.585 121.5C423.115 120.942 421.72 119.954 420.401 118.536L416.634 114.486L429.641 102.388L433.407 106.437ZM421.8 117.234C423.362 118.913 424.996 119.784 426.701 119.846C428.418 119.896 430.079 119.174 431.684 117.682C433.302 116.177 434.148 114.555 434.223 112.814C434.309 111.086 433.577 109.389 432.027 107.722L429.839 105.37L419.613 114.883L421.8 117.234Z" fill="black"/>
<path d="M413.45 111.445L411.722 109.898L414.208 93.1375L404.773 103.675L403.045 102.128L414.912 88.8752L416.639 90.4223L414.17 107.164L423.589 96.6447L425.317 98.1918L413.45 111.445Z" fill="black"/>
<path d="M399.767 94.5805L393.557 89.9479L390.051 92.261L388.09 90.798L403.798 80.4811L405.943 82.0812L400.51 100.063L398.549 98.6003L399.767 94.5805ZM400.364 92.6726L403.154 83.5616L395.216 88.8324L400.364 92.6726Z" fill="black"/>
<path d="M378.319 80.1761L371.565 76.3781L368.385 79.1217L366.252 77.9223L380.508 65.6763L382.841 66.9881L379.759 85.5183L377.626 84.3189L378.319 80.1761ZM378.666 78.2074L380.264 68.8139L373.068 75.0591L378.666 78.2074Z" fill="black"/>
<path d="M361.215 75.5728L360.393 67.2073L357.844 66.0401L354.82 72.6442L352.711 71.6787L360.107 55.5274L365.32 57.9148C366.541 58.4737 367.473 59.1526 368.116 59.9517C368.775 60.7579 369.15 61.6118 369.241 62.5134C369.333 63.415 369.17 64.3215 368.753 65.233C368.244 66.3453 367.47 67.1777 366.432 67.7303C365.41 68.2899 364.194 68.4152 362.784 68.1061L363.741 76.7294L361.215 75.5728ZM358.618 64.3485L361.723 65.7703C362.867 66.2938 363.851 66.4083 364.678 66.1139C365.511 65.804 366.143 65.1779 366.575 64.2356C367.013 63.2778 367.067 62.4054 366.736 61.6184C366.42 60.8385 365.683 60.1833 364.525 59.6528L361.419 58.2309L358.618 64.3485Z" fill="black"/>
<path d="M347.607 52.7468L345.555 58.3193L351.63 60.5562L350.97 62.35L344.895 60.113L342.781 65.8529L349.573 68.3541L348.913 70.1478L339.944 66.8452L346.092 50.1516L355.06 53.4542L354.4 55.248L347.607 52.7468Z" fill="black"/>
<path d="M332.205 46.1076C334.071 46.6284 335.584 47.4302 336.746 48.5131C337.929 49.5841 338.7 50.8666 339.059 52.3605C339.435 53.8589 339.378 55.4836 338.889 57.2347C338.401 58.9858 337.608 60.405 336.51 61.4923C335.434 62.5678 334.112 63.2573 332.546 63.5609C331 63.8527 329.295 63.7382 327.429 63.2175L322.102 61.7305L326.878 44.6207L332.205 46.1076ZM327.943 61.3764C330.152 61.9931 332 61.8827 333.486 61.0451C334.977 60.1911 336.017 58.7086 336.606 56.5975C337.2 54.47 337.075 52.6444 336.23 51.1209C335.402 49.6019 333.891 48.5363 331.698 47.9242L328.605 47.0608L324.85 60.513L327.943 61.3764Z" fill="black"/>
<path d="M321.262 43.2811L317.557 60.6544L315.289 60.1706L318.994 42.7974L321.262 43.2811Z" fill="black"/>
<path d="M313.288 41.8117L310.698 59.3858L308.404 59.0476L309.578 51.08L300.627 49.7608L299.453 57.7284L297.158 57.3903L299.748 39.8162L302.043 40.1543L300.906 47.8698L309.857 49.189L310.994 41.4735L313.288 41.8117Z" fill="black"/>
<path d="M276.679 47.3135C276.766 45.5826 277.233 44.0494 278.083 42.7138C278.933 41.3613 280.048 40.3282 281.427 39.6146C282.824 38.9018 284.345 38.5865 285.991 38.6688C287.926 38.7654 289.591 39.3164 290.987 40.3218C292.383 41.3272 293.369 42.7034 293.945 44.4504L291.17 44.3118C290.732 43.2181 290.06 42.3595 289.155 41.7359C288.268 41.1132 287.179 40.7696 285.89 40.7051C284.651 40.6432 283.525 40.8762 282.512 41.404C281.499 41.9318 280.685 42.7162 280.072 43.7574C279.459 44.7815 279.118 46.0063 279.046 47.4318C278.976 48.8402 279.194 50.093 279.701 51.1901C280.208 52.2702 280.94 53.1233 281.895 53.7495C282.85 54.3756 283.947 54.7196 285.186 54.7815C286.476 54.8459 287.593 54.621 288.537 54.1068C289.499 53.5765 290.253 52.7891 290.799 51.7445L293.573 51.8832C292.827 53.5471 291.709 54.8097 290.22 55.6709C288.732 56.5152 287.02 56.8891 285.086 56.7924C283.44 56.7102 281.957 56.2533 280.638 55.4219C279.336 54.5743 278.329 53.4437 277.617 52.0302C276.905 50.6166 276.593 49.0444 276.679 47.3135Z" fill="black"/>
<path d="M354.67 441.455L346.355 444.755L348.499 450.156C348.662 449.507 349.036 448.883 349.621 448.285C350.2 447.671 350.9 447.201 351.721 446.876C353.032 446.355 354.208 446.208 355.248 446.435C356.283 446.646 357.146 447.117 357.838 447.848C358.54 448.556 359.082 449.392 359.464 450.356C359.916 451.493 360.107 452.596 360.038 453.665C359.969 454.735 359.595 455.705 358.918 456.578C358.256 457.444 357.278 458.134 355.983 458.648C354.325 459.306 352.813 459.412 351.448 458.967C350.083 458.522 349.008 457.632 348.223 456.299L350.331 455.462C350.893 456.28 351.607 456.811 352.471 457.053C353.334 457.295 354.272 457.215 355.282 456.814C356.53 456.319 357.322 455.575 357.659 454.582C357.99 453.573 357.911 452.453 357.422 451.221C356.933 449.989 356.241 449.167 355.346 448.755C354.445 448.326 353.379 448.357 352.147 448.845C351.31 449.178 350.657 449.674 350.188 450.336C349.729 450.975 349.495 451.699 349.487 452.506L347.45 453.315L343.613 443.65L353.918 439.56L354.67 441.455Z" fill="black"/>
<path d="M333.166 464.413C334.714 462.118 335.908 460.262 336.749 458.845C337.586 457.412 338.223 455.996 338.66 454.597C339.109 453.177 339.16 451.907 338.813 450.787C338.486 449.732 337.969 448.985 337.264 448.546C336.57 448.085 335.654 448.031 334.518 448.383C333.415 448.725 332.663 449.341 332.263 450.23C331.874 451.098 331.834 452.116 332.142 453.283L330 453.947C329.501 452.11 329.618 450.535 330.349 449.223C331.081 447.911 332.266 447 333.905 446.492C335.577 445.974 337.043 446.026 338.303 446.649C339.58 447.267 340.47 448.387 340.974 450.01C341.391 451.357 341.393 452.797 340.98 454.331C340.577 455.843 340.015 457.245 339.295 458.536C338.57 459.81 337.611 461.335 336.418 463.111L344.792 460.513L345.365 462.364L333.657 465.995L333.166 464.413Z" fill="black"/>
<path d="M314.416 460.99C313.781 458.138 313.75 455.812 314.325 454.013C314.895 452.198 316.342 451.032 318.664 450.515C320.969 450.002 322.765 450.446 324.052 451.848C325.335 453.234 326.294 455.353 326.929 458.205C327.575 461.108 327.613 463.467 327.042 465.282C326.471 467.097 325.033 468.262 322.728 468.775C320.406 469.292 318.602 468.849 317.315 467.447C316.028 466.045 315.062 463.893 314.416 460.99ZM324.69 458.704C324.369 457.261 323.998 456.064 323.578 455.113C323.17 454.142 322.599 453.416 321.866 452.935C321.149 452.451 320.234 452.332 319.123 452.58C317.995 452.831 317.201 453.329 316.741 454.076C316.297 454.819 316.088 455.718 316.114 456.774C316.153 457.81 316.333 459.049 316.655 460.492C316.987 461.985 317.357 463.217 317.764 464.188C318.188 465.155 318.759 465.881 319.476 466.365C320.21 466.846 321.14 466.961 322.268 466.71C323.379 466.463 324.157 465.968 324.601 465.225C325.061 464.478 325.27 463.579 325.228 462.527C325.201 461.471 325.022 460.196 324.69 458.704Z" fill="black"/>
<path d="M299.517 470.896C301.404 468.87 302.873 467.223 303.925 465.954C304.974 464.669 305.824 463.369 306.474 462.056C307.139 460.723 307.387 459.476 307.219 458.316C307.06 457.223 306.666 456.405 306.038 455.861C305.424 455.298 304.528 455.102 303.351 455.273C302.208 455.439 301.369 455.93 300.836 456.745C300.316 457.542 300.118 458.541 300.241 459.742L298.021 460.064C297.815 458.172 298.175 456.634 299.102 455.452C300.029 454.27 301.342 453.556 303.04 453.309C304.772 453.057 306.212 453.337 307.36 454.149C308.525 454.959 309.23 456.204 309.474 457.886C309.677 459.281 309.454 460.704 308.807 462.155C308.173 463.586 307.4 464.883 306.487 466.046C305.572 467.192 304.387 468.548 302.932 470.116L311.609 468.856L311.887 470.772L299.756 472.535L299.517 470.896Z" fill="black"/>
<path d="M285.477 463.426L285.534 465.388L275.369 465.683L275.312 463.721L285.477 463.426Z" fill="black"/>
<path d="M257.886 456.991L258.035 454.881L262.815 455.219L261.514 473.6L259.175 473.435L260.326 457.164L257.886 456.991Z" fill="black"/>
<path d="M248.833 455.984L249.075 453.883L253.835 454.431L251.726 472.737L249.397 472.468L251.264 456.264L248.833 455.984Z" fill="black"/>
<path d="M235.768 459.833L235.362 461.753L225.413 459.65L225.819 457.73L235.768 459.833Z" fill="black"/>
<path d="M215.009 448.264L206.544 445.372L204.665 450.87C205.211 450.482 205.9 450.251 206.733 450.177C207.572 450.086 208.41 450.184 209.246 450.47C210.58 450.926 211.569 451.578 212.213 452.426C212.863 453.259 213.213 454.177 213.264 455.182C213.338 456.177 213.207 457.165 212.871 458.146C212.476 459.303 211.905 460.266 211.157 461.034C210.41 461.802 209.496 462.298 208.414 462.521C207.348 462.749 206.156 462.638 204.838 462.188C203.15 461.611 201.931 460.71 201.183 459.484C200.435 458.259 200.195 456.884 200.464 455.36L202.611 456.094C202.507 457.082 202.704 457.948 203.204 458.694C203.703 459.439 204.468 459.987 205.497 460.339C206.767 460.773 207.852 460.722 208.754 460.186C209.661 459.634 210.328 458.731 210.757 457.477C211.185 456.223 211.193 455.148 210.781 454.253C210.374 453.342 209.544 452.672 208.29 452.244C207.437 451.952 206.618 451.906 205.832 452.104C205.068 452.292 204.42 452.69 203.889 453.299L201.815 452.59L205.177 442.75L215.668 446.335L215.009 448.264Z" fill="black"/>
<path d="M194.979 440.977L195.789 439.023L200.216 440.856L193.165 457.881L190.999 456.984L197.24 441.913L194.979 440.977Z" fill="black"/>
<path d="M185.794 438.205C184.671 435.745 183.212 433.398 181.228 431.513C175.691 426.399 168.457 423.794 161.576 420.982C161.065 420.783 160.562 420.563 160.059 420.343C158.92 419.846 157.776 419.347 156.558 419.116C156.327 419.067 156.116 419.182 156.004 419.346C154.227 418.398 152.459 417.423 150.714 416.422C152.087 416.821 153.477 417.178 154.864 417.51C159.589 418.679 164.685 418.256 169.248 416.59C170.917 416.093 172.312 414.923 173.153 413.407C173.873 411.85 171.083 411.286 170.025 410.993C168.849 410.713 167.619 410.71 166.42 410.796C164.567 410.972 162.703 411.161 160.843 410.96C158.858 410.74 156.848 410.557 154.849 410.45C154.849 410.45 154.86 410.454 154.865 410.456C153.355 410.332 151.82 410.073 150.295 410.002C147.266 409.886 144.278 410.197 141.226 410.03C140.912 409.997 140.594 409.957 140.277 409.916C133.948 405.552 127.934 400.746 121.817 396.097C119.851 394.623 118.053 392.965 116.306 391.237C116.426 391.325 116.539 391.417 116.656 391.498C118.302 392.616 120.075 393.485 121.913 394.201C125.032 395.417 128.347 396.191 131.578 396.98C134.726 397.695 137.941 398.234 141.173 398.185C144.57 398.135 148.143 397.683 151.534 397.238C152.335 397.105 153.744 396.94 153.635 395.845C153.291 394.455 150.044 394.011 148.791 393.547C145.998 392.839 143.391 391.728 140.847 390.367C138.05 388.95 135.398 387.667 132.591 386.062C128.437 383.521 124.087 381.297 119.434 379.805C115.682 378.366 111.697 377.878 107.763 377.213C105.952 376.734 104.194 376.007 102.483 375.239C101.094 373.401 99.7047 371.563 98.3645 369.691C96.5496 367.098 94.9012 364.368 93.0441 361.777C90.8627 358.827 88.934 355.702 87.4089 352.366C87.4094 351.967 87.4223 351.568 87.4229 351.17C90.6102 355.094 94.3149 358.638 98.4258 361.566C102.777 364.534 107.541 366.855 112.366 368.943C113.262 369.328 114.158 369.701 115.067 370.055C119.611 371.826 124.322 373.168 129.157 373.857C133.657 374.474 138.213 374.293 142.712 374.91C143.813 374.97 145.046 375.011 145.989 374.361C146.998 373.636 146.673 372.272 145.822 371.572C144.928 370.736 143.758 370.274 142.662 369.758C140.492 368.811 138.425 367.672 136.379 366.482C132.875 364.391 129.159 362.711 125.489 360.954C123.384 359.884 121.38 358.633 119.302 357.508C117.246 356.374 115.054 355.543 112.869 354.71C112.169 354.443 111.47 354.177 110.775 353.9C108.909 353.149 107.119 352.231 105.29 351.399C102.92 350.369 100.513 349.401 98.0629 348.577C95.6984 347.822 93.2216 347.523 90.7966 347.03C89.2402 346.644 87.6896 345.998 86.0764 346.291C85.7221 346.147 85.3547 346.022 84.9883 345.909C84.9605 345.797 84.9379 345.687 84.9082 345.58C85.6598 344.582 86.2248 343.423 86.5175 342.091C87.4678 339.012 87.3503 336.23 86.7516 333.493C88.7525 336.402 91.0347 339.23 93.9864 341.195C94.7711 341.715 95.6148 342.145 96.4823 342.483C101.212 344.326 106.921 343.506 110.566 339.799C112.23 337.682 112.788 334.907 113.134 332.294C113.484 328.862 111.656 325.937 109.825 323.141C108.421 321.066 106.816 319.078 104.765 317.595C101.67 315.419 98.257 313.691 94.681 312.458C93.7747 312.158 92.8583 311.884 91.942 311.611C91.9624 311.589 91.9673 311.561 91.9877 311.539C93.2829 311.253 94.5129 310.691 95.6729 310.019C95.7039 310.031 95.7349 310.043 95.7659 310.055C95.8433 310.086 95.9208 310.116 95.9982 310.146C97.9245 310.682 99.7669 311.632 101.486 312.671C102.89 313.599 104.26 314.573 105.552 315.653C107.445 317.343 109.046 319.34 111.088 320.862C110.789 321.43 110.749 322.157 110.978 322.776C111.436 324.043 112.471 325.112 113.726 325.601C113.901 325.67 114.076 325.726 114.256 325.766C114.874 326.102 115.683 326.364 116.366 326.059C116.49 326.001 116.609 325.94 116.726 325.884C116.942 326.123 117.206 326.315 117.454 326.412C117.524 326.522 117.623 326.62 117.736 326.682C117.77 326.701 117.804 326.721 117.84 326.735C118.274 326.904 118.839 326.69 118.919 326.18C118.943 325.933 118.826 325.715 118.686 325.524C118.617 325.229 118.489 324.918 118.203 324.765C118.145 324.671 118.056 324.594 117.968 324.513C118.146 322.988 116.703 321.837 115.519 321.06C115.543 321.075 115.572 321.092 115.596 321.108C115.558 321.081 115.524 321.062 115.487 321.036C115.477 321.032 115.466 321.028 115.453 321.016C115.453 321.016 115.421 320.992 115.405 320.986L115.415 320.99C114.399 320.332 113.203 319.539 111.99 320.042C111.87 320.09 111.764 320.15 111.66 320.217C110.868 319.242 109.991 318.335 109.074 317.466C107.491 315.683 105.684 314.123 103.761 312.725C106.688 314.127 109.629 315.571 112.241 317.505C113.771 318.6 115.22 319.813 116.806 320.824C118.284 321.78 119.835 322.653 121.327 323.585C121.62 323.765 121.928 323.921 122.243 324.061C122.232 324.211 122.228 324.358 122.261 324.502C122.404 325.218 122.802 325.861 123.217 326.445C123.621 327.59 124.517 328.45 125.46 329.175C125.716 329.417 126.023 329.608 126.353 329.737C126.885 329.944 127.474 329.989 127.966 329.812C128.258 330.176 128.579 330.497 128.792 330.699C128.924 330.816 129.078 330.912 129.243 330.976C129.656 331.137 130.144 331.107 130.47 330.758C130.704 331.088 131.382 331.12 131.316 330.6C131.223 330.29 130.941 330.038 130.688 329.832C130.645 329.56 130.543 329.288 130.376 329.074C130.216 328.875 129.983 328.725 129.736 328.658C129.566 328.467 129.362 328.245 129.14 328.051C129.216 327.718 129.267 327.387 129.151 327.044C128.72 325.479 127.349 324.159 125.757 323.818C125.034 323.263 124.193 322.567 123.219 322.806C122.978 322.86 122.794 322.997 122.637 323.156C121.278 322.246 119.874 321.407 118.478 320.565C118.523 320.571 118.575 320.574 118.623 320.574C120.307 320.678 122.265 320.768 123.971 320.297C124.527 320.9 125.228 321.376 125.997 321.676C126.477 321.863 126.984 321.983 127.493 322.02C128.717 321.962 129.218 321.241 129.217 320.403C129.618 320.428 130.044 320.189 129.99 319.734C130.416 319.174 129.973 318.526 129.595 318.075C128.966 317.521 128.331 317.839 128.302 318.386C128.272 318.357 128.249 318.324 128.224 318.297C127.082 317.227 125.486 316.028 123.841 316.571C123.14 316.827 122.647 317.527 122.834 318.284C122.975 318.654 123.15 319.031 123.325 319.391C123.225 319.418 123.13 319.434 123.033 319.438C122.055 319.58 121.12 319.555 120.123 319.488C119.06 319.377 117.972 319.345 116.939 319.08C116.576 318.897 116.144 318.693 115.725 318.731C114.093 317.53 112.508 316.241 110.771 315.189C108.52 313.759 106.02 312.636 103.575 311.492C103.197 311.316 102.814 311.154 102.432 310.976C104.186 311.053 105.936 311.158 107.69 311.068C108.927 311.051 110.211 310.748 111.477 310.551C111.801 310.88 112.216 311.143 112.596 311.344C112.885 311.487 113.181 311.614 113.486 311.732C114.079 311.964 114.693 312.144 115.319 312.233C115.688 312.353 116.075 312.414 116.459 312.314C117.207 312.165 117.573 311.577 117.553 310.956C117.624 311.002 117.703 311.044 117.777 311.067C117.814 311.081 117.844 311.093 117.875 311.106C118.645 311.405 119.589 310.815 119.052 309.964C119.154 309.611 118.766 309.293 118.439 309.309C117.99 309.056 117.262 309.231 117.195 309.799C117.163 309.835 117.149 309.871 117.13 309.905C117.122 309.896 117.12 309.883 117.112 309.874C116.051 308.675 112.873 306.45 111.769 308.583C111.304 308.646 110.92 309.067 110.952 309.549C110.163 309.635 109.372 309.743 108.588 309.77C106.962 309.821 105.351 309.651 103.736 309.491C101.692 309.379 99.6752 309.075 97.665 308.708C101.231 306.089 103.566 301.425 102.458 297.003C101.892 294.641 100.962 292.387 99.9399 290.186C98.9262 287.995 97.3817 286.067 95.3995 284.682C91.3963 281.706 87.2334 283.093 84.6394 287.079C83.1105 289.552 82.3892 292.334 81.4389 295.063C81.2419 294.088 81.0007 293.12 80.7846 292.209C79.6827 288.091 77.5857 284.33 74.8846 281.035C79.588 282.321 84.4262 281.643 87.7984 278.484C88.1694 278.89 88.564 279.282 88.985 279.636C91.2153 281.606 93.8785 283.304 96.6717 284.47C96.8433 284.548 97.0189 284.617 97.1944 284.685C100.572 286.001 104.273 285.677 107.799 285.1C110.994 284.805 114.233 284.675 117.476 284.381C118.819 284.279 120.169 284.234 121.511 284.222C122.034 284.224 123.043 284.29 122.893 283.5C122.081 282.333 120.92 281.405 119.982 280.331C117.914 278.175 115.941 275.913 113.726 273.902C111.453 271.892 108.858 270.185 106.124 268.852C102.688 267.275 97.2387 267.156 92.9179 267.346C93.4378 262.517 91.9447 257.694 88.4429 253.706C86.2947 251.358 83.3799 249.955 80.4914 248.728C80.4966 248.73 80.5038 248.727 80.5161 248.726C87.7329 247.957 96.3734 247.916 102.349 243.113C108.202 238.001 110.529 223.009 100.179 222.063C89.8233 221.56 79.7025 226.056 71.9476 232.724C69.9626 234.49 67.8035 236.23 65.9875 238.234C66.479 237.492 66.9673 236.743 67.47 235.987C67.5822 235.882 67.6914 235.77 67.8036 235.665C68.9927 234.552 69.9873 233.221 71.0984 232.018C72.4015 230.658 73.7798 229.411 75.2573 228.214C78.2228 225.855 81.2914 223.505 84.8406 222.075C86.6409 221.302 88.3203 220.243 90.1298 219.461C94.3005 217.672 98.4024 215.785 102.376 213.587C104.426 212.583 106.341 211.319 108.234 210.046C109.731 209.06 111.294 208.146 112.645 206.954C114.595 205.186 116.343 203.065 117.251 200.57C117.741 199.173 117.806 197.664 118.105 196.21C118.359 194.947 118.714 193.533 119.19 192.267C119.407 191.769 119.902 190.712 119.016 190.652C116.593 191.665 114.167 192.73 111.75 193.775C109.892 194.651 108.161 195.749 106.334 196.684C106.348 196.678 106.357 196.67 106.371 196.663C104.639 197.553 102.981 198.572 101.374 199.659C98.933 201.206 96.51 202.783 94.4265 204.803C92.8685 206.206 91.1961 207.475 89.6746 208.923C88.217 210.282 86.8549 211.839 85.5428 213.344C83.7189 215.506 81.7283 217.561 80.1748 219.93C79.6657 220.778 79.2332 221.674 78.7635 222.544C78.2497 223.099 77.7308 223.652 77.1921 224.18C76.3666 224.971 75.5287 225.762 74.7012 226.558C75.3902 225.691 76.0554 224.808 76.6801 223.891C85.4152 209.077 77.4715 203.59 68.6774 208.437C69.6977 207.681 70.6377 206.917 71.425 206.224C74.3825 203.534 75.5952 199.766 75.7153 195.917C76.1771 200.272 77.1061 204.62 80.1381 207.859C80.8194 208.553 81.5896 209.049 82.4106 209.369C86.0201 210.776 90.5467 208.745 92.5139 205.33C95.3862 200.936 96.0202 194.134 92.4284 189.981C91.8218 189.477 91.1877 188.998 90.5384 188.543C90.673 188.518 90.8024 188.491 90.931 188.481C92.3673 188.214 93.8317 188.196 95.2738 187.991C97.1613 187.65 98.9484 186.895 100.751 186.176C100.972 186.083 101.183 185.969 101.397 185.862C105.091 185.25 108.836 184.461 112.59 184.812C112.323 188.366 116.252 188.356 117.509 185.545C118.377 183.867 117.657 181.379 115.545 181.258C114.489 181.204 113.319 181.765 112.809 182.708C111.08 182.534 109.377 182.876 107.707 183.254C106.724 183.442 105.757 183.678 104.782 183.922C105.331 183.583 105.879 183.243 106.445 182.935C108.588 181.878 110.319 180.245 111.898 178.481C113.351 177.334 114.76 176.099 115.94 174.673C118.25 175.49 121.024 171.747 120.023 169.674C119.405 168.345 117.651 168.161 116.542 168.978C115.212 169.917 114.508 171.754 114.854 173.34C112.756 175.853 110.105 177.771 107.31 179.435C107.608 179.052 107.861 178.645 107.95 178.174C107.954 178.163 107.946 178.154 107.944 178.142C108.055 177.935 108.141 177.76 108.192 177.644C109.087 175.714 109.651 173.656 110.02 171.564C112.045 171.77 113.822 168.096 113.455 166.413C112.164 162.811 107.059 167.578 107.591 169.998C107.654 170.63 108.107 171.145 108.67 171.365C108.794 171.413 108.926 171.441 109.055 171.461C108.453 172.791 108.041 174.2 107.658 175.61C107.243 176.858 106.733 178.092 106.093 179.246C105.88 179.455 105.663 179.662 105.456 179.873C105.098 180.227 104.791 180.618 104.486 181.017C104.394 181.071 104.299 181.117 104.207 181.17C104.207 181.17 104.207 181.17 104.212 181.172C104.099 181.217 103.995 181.302 103.918 181.408C103.827 181.534 103.779 181.717 103.776 181.894C103.634 182.059 103.493 182.224 103.34 182.373C102.408 183.283 101.186 183.764 100 184.242C99.1718 184.597 98.3953 185.002 97.6211 185.432C100.878 183.103 103.25 179.382 103.901 174.889C104.098 171.177 105.446 166.313 101.997 163.702C100.094 162.372 98.2499 161.671 96.4891 161.443C100.459 160.611 105.122 159.222 105.558 158.654C108.79 156.571 112.056 154.418 114.865 151.789C116.811 149.74 118.259 147.277 119.91 144.994C120.974 143.119 123.311 141.228 122.787 138.894C121.572 136.821 117.474 139.173 115.544 139.331C111.216 140.089 107.113 141.72 103.789 144.648C102.334 145.865 98.3265 149.264 94.899 152.794C95.8263 151.406 96.7638 150.023 97.7014 148.64C100.969 143.733 105.749 140.261 109.6 135.843C111.052 135.017 112.523 134.217 113.974 133.378C114.962 132.782 115.958 132.194 117.027 131.742C118.199 131.236 119.412 130.81 120.611 130.374C122.12 129.843 123.756 129.095 125.384 128.688C128.637 127.958 131.793 126.88 135.06 126.22C136.464 125.898 137.847 125.462 139.126 124.789C140.339 124.042 142.135 123.57 142.481 122.01C142.814 119.844 140.177 120.291 138.784 120.266C137.598 120.285 136.35 120.221 135.165 120.408C133.036 120.744 130.977 121.417 128.897 121.962C126.116 122.657 123.504 123.882 120.994 125.241C120.578 125.453 120.174 125.695 119.779 125.945C120.799 125.07 121.82 124.189 122.817 123.293C125.206 121.024 127.692 118.858 130.267 116.798C131.004 116.633 131.755 116.492 132.474 116.278C133.436 115.963 134.188 115.453 135.126 114.968C137.878 113.691 140.929 112.989 143.924 112.538C146.013 112.109 147.966 111.187 149.847 110.207C151.677 109.219 153.667 108.097 155.221 106.656C157.586 104.449 159.758 102.066 162.19 99.9325C164.439 97.9005 162.661 97.5942 160.638 97.9776C157.022 98.6325 153.579 100.003 150.174 101.353C147.914 102.209 145.695 103.063 143.569 104.245C140.766 105.883 138.071 107.854 135.741 110.17C134.494 111.355 133.343 112.691 132.094 113.882C131.775 114.21 131.31 114.534 130.942 114.914C126.285 117.447 122.05 120.591 118.076 124.074C118.417 123.594 118.761 123.11 119.094 122.621C121.854 118.516 123.994 113.908 125.004 109.043C125.563 106.144 124.722 103.265 124.127 100.44C123.798 98.7828 123.383 97.146 122.841 95.5433C122.693 94.7954 122.031 94.2342 121.402 94.8872C120.821 95.6303 120.674 96.6021 120.448 97.4892C119.825 100.262 119.335 103.075 118.501 105.795C117.96 107.458 117.181 109.016 116.406 110.576C115.483 112.458 114.714 114.401 113.948 116.351C113.025 118.43 113.259 120.728 112.827 122.921C112.671 123.58 112.478 124.23 112.263 124.872C112.249 124.908 112.238 124.952 112.224 124.988C111.547 126.984 110.659 128.928 109.968 130.913C110.082 130.743 110.203 130.57 110.319 130.395C110.218 130.654 110.123 130.914 110.027 131.174C109.638 131.563 109.265 131.971 108.94 132.422C109.126 132.435 109.298 132.389 109.473 132.368C107.591 134.329 105.738 136.319 103.908 138.3C101.793 140.14 99.9131 142.186 98.1684 144.343C99.0951 141.736 99.8215 139.063 100.233 136.327C100.937 132.217 100.103 128.145 99.103 124.163C98.4082 122.084 98.853 116.791 95.8695 116.8C93.586 117.975 93.8815 121.337 92.9311 123.471C90.1405 132.418 87.6309 141.819 88.0849 151.292C88.3867 153.967 87.8347 156.697 88.267 159.357C87.4554 160.784 86.6572 162.221 85.8559 163.652C85.6213 159.278 84.0614 154.81 79.8428 152.845C71.7928 147.662 65.6818 158.52 64.9983 165.433C64.8709 167.18 65.0995 168.928 65.6074 170.601C65.16 169.826 64.7126 169.051 64.254 168.29C64.207 168.212 64.162 168.129 64.115 168.051C64.1271 168.02 64.1474 167.998 64.1595 167.967C64.207 167.754 64.1472 167.51 64.0047 167.342C63.6131 165.554 63.7559 163.676 63.7778 161.865C63.8258 160.902 63.8695 159.92 63.9 158.956C64.514 159.136 65.1722 158.851 65.5161 158.289C67.1693 157.298 67.3158 154.678 66.0297 153.338C64.4664 151.718 62.2508 153.008 62.2972 155.102C62.3783 155.764 62.3772 156.453 62.6247 157.085C62.6598 157.789 62.9913 158.495 63.6223 158.86C63.6565 158.879 63.6978 158.895 63.7319 158.914C63.1023 161.018 62.5323 163.229 62.6034 165.428C62.1704 164.646 61.768 163.847 61.4426 163.019C61.0655 161.926 60.8485 160.788 60.4836 159.695C60.2781 159.032 60.0007 158.4 59.7091 157.775C62.4097 157.21 61.5534 151.089 58.4542 151.166C56.9393 150.474 55.4747 151.729 55.5938 153.316C55.6198 155.188 56.9823 156.79 58.5085 157.712C58.7386 157.777 58.9477 157.805 59.1506 157.819C59.3615 160.804 59.5525 162.603 60.7216 165.022C59.1183 163.427 57.5171 161.828 55.8139 160.337C55.7697 159.993 55.6987 159.656 55.5695 159.362C55.2397 158.27 54.1566 157.294 52.9884 157.285C51.8781 157.418 51.6556 158.782 51.6329 159.695C50.8473 160.811 52.7706 162.179 53.6682 162.547L53.6166 162.526C53.6941 162.557 53.7715 162.587 53.8386 162.613C54.6597 162.933 55.1884 162.675 55.501 162.178C58.7561 164.815 61.4145 168.051 64.2445 171.153C64.2062 171.007 64.1607 170.864 64.1172 170.716C64.5827 171.445 65.0502 172.169 65.5464 172.879C65.936 173.406 66.3196 173.948 66.7031 174.49C65.8395 174.005 64.9531 173.517 63.9204 173.114C60.2713 171.763 55.7478 171.268 52.3226 173.448C48.1989 176.582 40.9965 184.731 46.0931 189.602C47.0639 190.438 48.1088 191.054 49.1984 191.478C52.183 192.641 55.5185 192.4 58.7114 191.533C58.4529 191.861 58.2016 192.185 57.9532 192.487C54.8471 197.206 51.1472 203.771 53.1674 209.53C54.068 210.928 55.1512 211.796 56.344 212.261C59.2719 213.402 62.8583 212.105 66.0399 210.199C64.0327 211.778 62.059 213.881 60.3148 216.556C58.9954 218.522 58.0435 220.828 57.4397 223.293C57.2963 221.173 56.7829 219.118 56.0704 217.115C55.1055 214.05 53.7539 211.139 52.2169 208.321C51.1365 206.27 50.0478 204.211 48.6942 202.327C47.3722 200.545 45.9378 198.838 44.5045 197.143C40.6623 192.488 36.6542 187.815 31.5335 184.517C31.1838 184.315 30.8452 183.963 30.4156 184.028C29.9033 184.167 30.0475 184.759 30.1939 185.131C30.4197 185.986 30.4503 186.884 30.561 187.76C30.9806 191.064 31.2078 194.389 31.6397 197.691C31.9481 200.304 32.113 202.979 32.9864 205.485C34.2919 208.652 37.0566 210.883 39.6095 213.032C39.7701 213.154 39.9267 213.286 40.0761 213.422C38.2936 214.577 36.571 215.869 34.7949 216.931C30.1001 220.645 24.6957 225.005 23.2676 231.157C22.3525 236.558 23.0868 243.542 28.6479 246.137C28.8298 246.22 29.0085 246.295 29.1892 246.366C32.5612 247.68 36.3262 247.375 39.9048 247.395C38.2063 248.167 36.5351 248.991 34.8943 249.874C32.6547 251.011 30.4755 252.345 28.6863 254.128C25.4262 257.854 21.1975 262.142 21.6248 267.471C21.9326 270.131 23.2998 272.484 23.9115 275.066C24.4101 277.663 26.4214 279.309 28.8769 279.999C29.2108 280.164 29.5456 280.313 29.8864 280.446C32.1533 281.329 34.5269 281.481 36.8936 281.207C36.1976 281.406 35.4912 281.601 34.8164 281.867C33.0831 282.53 31.6208 283.703 30.2162 284.88C28.008 286.655 26.4619 289.157 25.2733 291.704C24.3264 293.66 23.4077 295.652 22.748 297.726C22.1138 299.781 21.7797 301.905 21.293 303.993C21.0485 304.957 20.8059 305.915 20.5149 306.86C20.2511 308.102 18.6985 311.262 19.365 312.253C19.4774 312.392 19.6079 312.484 19.7525 312.541C20.2121 312.72 20.795 312.537 21.2683 312.406C22.1594 312.164 23.0584 311.872 23.861 311.4C26.1453 309.964 28.0368 307.995 29.9891 306.145C32.1769 304.041 34.1768 301.763 36.1684 299.476C39.5879 295.509 43.084 291.59 46.1562 287.339C48.1686 284.388 49.7843 281.264 51.5163 278.132C52.0694 277.034 52.5669 275.925 53.0417 274.813C55.9952 271.218 57.3205 265.649 58.535 261.037C59.2423 263.496 60.338 265.874 61.5971 268C62.266 269.26 62.9586 270.535 63.7056 271.778C57.8102 269.201 51.3436 273.432 52.3298 280.609C53.2311 284.737 56.0886 288.027 58.453 291.423C60.5703 294.568 63.1802 297.333 65.9472 299.94C66.1437 300.154 66.3349 300.365 66.5181 300.597C67.3534 301.827 67.9892 303.187 68.8788 304.384C67.0503 302.803 65.1247 301.303 63.1764 299.907C59.7228 297.277 55.6056 295.601 51.289 295.108C47.8866 294.651 44.2553 294.949 41.3878 296.996C38.8497 298.594 37.2939 301.503 36.9073 304.433C36.5156 309.896 41.6211 313.568 46.2117 315.357C46.3046 315.393 46.3924 315.428 46.4853 315.464C50.7638 317.107 55.409 318.436 60.054 318.711C58.3431 319.591 56.6098 320.956 55.4641 321.729C54.8678 322.145 54.326 322.558 53.8141 322.971C53.7507 322.905 53.6802 322.842 53.578 322.814C53.4142 322.791 53.2581 322.826 53.1168 322.914C52.8627 322.803 52.5571 322.808 52.2975 323.017C50.2049 324.021 47.9087 324.465 45.5792 324.413C44.449 324.383 43.3233 324.296 42.1939 324.248C42.2498 323.128 41.8577 321.982 41.2802 321.037C40.3966 319.473 38.4262 319.187 37.3563 320.727C36.7233 321.069 36.2581 321.638 35.9417 322.282C35.7667 321.708 35.3042 321.307 34.6098 321.685C33.892 322.214 34.3414 323.442 34.8084 323.999C34.8842 324.064 34.9659 324.114 35.0434 324.144C35.2138 324.21 35.3834 324.187 35.5341 324.121C35.5514 325.145 35.9442 326.137 36.8316 326.744C37.1107 326.883 37.3355 327.054 37.5934 327.231C37.7767 327.356 37.9648 327.453 38.1507 327.526C39.7515 328.15 41.4335 327.039 41.9644 325.402C44.4151 325.661 46.8702 326.183 49.3308 325.715C49.7562 325.631 50.564 325.511 51.3619 325.311C50.7149 326.04 50.1453 326.799 49.6523 327.607C49.2281 328.161 48.8464 328.744 48.4684 329.286C47.5755 329.105 46.7752 331.464 46.3561 332.127C46.2946 332.27 46.2107 332.439 46.1239 332.632C43.2648 331.696 40.8803 337.815 42.5174 340.207C42.5403 340.24 42.5725 340.265 42.5954 340.297C41.8187 341.024 41.6805 342.95 42.5338 343.539C42.6677 343.668 42.7899 343.752 42.9138 343.8C43.6883 344.102 44.1627 342.823 44.0849 342.061C44.127 341.816 44.1366 341.517 44.1021 341.223C44.3185 341.248 44.5397 341.245 44.7615 341.195C46.3354 342.605 48.5015 341.076 48.5826 339.204C48.7434 338.196 48.4985 337.161 48.1186 336.228C48.163 335.55 48.0817 334.858 47.827 334.229C48.2986 333.217 48.7619 332.196 49.2831 331.21C49.7888 330.324 50.3575 329.475 51.004 328.686C51.0968 328.586 51.1792 328.481 51.2648 328.384C51.093 329.893 51.1025 331.425 51.1922 332.935C51.2616 333.795 51.4768 334.616 51.7577 335.422C50.8172 336.477 50.4506 338.059 50.9627 339.4C51.0335 340.302 51.3434 341.232 52.0302 341.851C52.2949 342.102 52.5774 342.278 52.8614 342.389C52.9802 342.435 53.1039 342.453 53.2255 342.477C53.3049 342.609 53.4058 342.732 53.5383 342.819C53.5698 342.891 53.6085 342.959 53.6472 343.028C53.6564 343.478 53.7436 343.91 54.0472 344.26C54.2371 344.429 54.4172 344.547 54.5928 344.616C55.4396 344.946 56.0445 344.111 56.2415 343.117C56.3774 342.432 56.3079 341.68 56.005 341.175C56.2488 340.824 56.4336 340.426 56.5369 340.008C56.7643 339.074 56.9256 338.126 56.9995 337.173C57.1031 335.06 55.4985 333.317 53.3826 334.366C53.2492 334.403 53.1355 334.466 53.0155 334.514C52.8017 331.659 52.4694 328.788 53.0556 325.971C54.0595 324.982 55.1399 324.041 56.3343 323.174C58.1736 321.934 61.1998 319.098 63.4061 319.191C63.8133 319.26 64.0617 318.959 64.0742 318.636C64.4568 318.601 64.8416 318.59 65.2198 318.536C65.8583 318.469 66.4418 318.346 67.0086 318.204C63.5743 320.392 60.1235 323.158 58.9866 327.235C58.211 330.157 58.8144 333.08 59.5883 335.963C60.8294 340.456 63.1874 344.967 67.1816 347.63C68.0731 348.227 69.0357 348.733 70.0427 349.126C72.3147 350.011 74.805 350.321 77.2151 349.845C77.992 349.713 78.7549 349.511 79.4957 349.258C78.3536 350.449 77.2675 351.679 76.4582 353.13C73.7477 358.01 72.4656 363.803 72.0344 369.351C71.9458 374.295 73.3132 379.105 74.8624 383.753C75.7849 386.331 76.2877 389.162 78.1365 391.286C78.7103 391.813 79.2166 392.147 79.6761 392.326C83.2185 393.707 83.5395 385.511 84.2209 382.862C85.94 373.795 87.0262 364.612 87.3 355.393C87.9539 356.706 88.6612 358.005 89.4515 359.258C90.531 360.976 91.7126 362.614 92.7993 364.328C94.0006 366.206 95.1821 368.165 96.4049 370.033C96.773 370.569 97.1626 371.096 97.5379 371.629C97.5355 371.711 97.526 371.797 97.5288 371.881C97.5406 372.98 98.1943 373.913 98.4547 374.954C98.8702 376.544 98.6739 378.192 98.6039 379.806C98.5595 380.943 98.5306 382.086 98.5109 383.22C98.4218 385.463 98.6579 387.696 99.0532 389.903C99.5126 393.287 100.41 396.57 101.488 399.803C102.387 403.068 103.636 406.243 105.456 409.111C108.007 413.097 110.197 417.627 114.246 420.317C114.467 420.468 114.721 420.609 114.99 420.713C115.795 421.027 116.728 421.046 117.283 420.293C118.033 418.765 117.774 416.927 117.771 415.272C117.491 410.845 116.68 406.455 115.724 402.133C115.126 399.895 114.236 397.752 113.211 395.682C111.328 391.51 108.887 387.638 106.168 383.961C105.464 382.991 104.743 382.032 104.013 381.082C103.822 380.686 103.626 380.288 103.436 379.893C103.476 379.926 103.518 379.955 103.564 379.991C104.272 380.951 104.974 381.914 105.677 382.872C107.108 384.709 108.716 386.4 110.366 388.042C112.389 390.085 114.314 392.227 116.405 394.202C119.642 397.176 123.204 399.772 126.666 402.489C127.457 404.397 128.19 406.33 129.139 408.169C129.987 409.856 129.902 411.905 130.468 413.689C130.884 415.094 131.443 416.466 132.121 417.765C134.183 421.585 137.055 424.899 140.026 428.037C142.406 430.416 144.511 433.104 147.188 435.164C147.588 435.48 148.163 435.835 148.736 436.059C149.852 436.493 150.944 436.437 150.703 434.69C150.502 432.643 149.98 430.637 149.164 428.749C147.606 424.9 145.331 421.414 143.023 417.981C141.122 414.921 138.771 412.208 136.184 409.719C137.126 410.401 138.079 411.07 139.039 411.718C142.73 414.167 146.625 416.292 150.642 418.149C152.022 419.156 153.411 420.156 154.823 421.11C156.317 422.145 158.019 422.968 159.164 424.426C161.28 426.779 162.644 430.118 165.288 432.064C169.653 435.621 175.447 436.231 180.593 438.088C182.316 438.658 183.996 439.414 185.235 440.783C185.324 440.877 185.429 440.942 185.548 440.988C185.935 441.139 186.423 441.032 186.586 440.614C186.666 440.377 186.576 440.122 186.49 439.898C186.266 439.299 186.013 438.743 185.749 438.152L185.794 438.205ZM90.0234 350.922C95.2292 353.605 100.109 356.744 105.528 359.016C105.729 359.095 105.931 359.173 106.127 359.25C107.531 359.797 108.964 360.272 110.395 360.752C110.782 360.903 111.175 361.039 111.553 361.215C111.886 361.458 112.335 361.574 112.69 361.319C113.084 361.056 112.999 360.464 112.592 360.258C111.331 359.618 110.026 359.288 108.691 358.774C105.472 357.603 102.452 355.95 99.5524 354.142C96.7428 352.422 93.8543 350.845 91.0255 349.16C92.4432 349.444 93.8697 349.691 95.2825 350.004C97.7037 350.537 100.007 351.494 102.315 352.393C104.664 353.326 106.92 354.467 109.254 355.436C110.221 355.825 111.201 356.195 112.18 356.553C114.072 357.254 115.971 357.953 117.771 358.874C120.028 360.027 122.16 361.346 124.443 362.449C126.304 363.365 128.318 364.15 130.205 365.064C134.503 367.161 138.566 369.708 142.948 371.635C147.301 373.986 141.974 373.082 140.299 372.875C136.05 372.379 131.746 372.48 127.544 371.587C121.241 370.391 115.227 368.042 109.426 365.329C103.635 362.668 98.0419 359.483 93.3736 355.101C91.5822 353.409 89.7167 351.725 88.1303 349.828C88.7685 350.189 89.4036 350.544 90.0131 350.918L90.0234 350.922ZM90.5793 274.69C90.6981 274.737 90.8209 274.773 90.9437 274.808C91.3748 275.03 91.808 275.246 92.2339 275.466C93.6785 276.231 95.1331 276.97 96.5705 277.739C98.1723 278.589 99.774 279.439 101.376 280.289C99.3696 278.752 97.3247 277.253 95.2137 275.848C96.3774 276.052 97.5461 276.227 98.7176 276.381C101.625 276.734 104.579 277.457 107.513 277.132C107.706 277.094 107.96 277.038 108.18 276.963C107.503 276.485 106.651 276.367 105.844 276.333C102.352 276.06 98.9594 275.226 95.5023 274.634C94.1776 274.385 92.8998 273.971 91.6131 273.594C91.4869 273.521 91.3647 273.438 91.2313 273.368C91.294 273.238 91.3515 273.106 91.4141 272.975C92.5384 272.914 93.6614 272.81 94.764 272.621C96.3014 272.37 97.8325 271.997 99.3568 271.55C99.8511 271.35 100.521 271.356 100.934 271.029C101.259 270.608 100.576 270.39 100.247 270.517C97.4276 271.25 94.5806 271.795 91.7093 272.264C92.1986 271.039 92.5498 269.802 92.7682 268.554C94.2222 268.532 95.6796 268.547 97.1341 268.584C99.5155 268.686 101.929 268.811 104.224 269.515C111.181 272.131 116.039 278.027 121.111 283.174C118.109 283.093 115.179 283.408 112.163 283.577C109.186 283.63 106.187 284.032 103.216 284.177C99.8237 284.318 96.6582 282.948 93.8358 281.17C92.8081 280.525 91.9481 279.649 90.8707 279.086C90.0208 278.642 89.0883 278.41 88.161 278.179C89.1035 277.226 89.9195 276.063 90.571 274.681L90.5793 274.69ZM78.888 223.812C80.9458 221.676 82.8935 219.425 85.2463 217.6C86.9762 216.091 88.6666 214.531 90.5256 213.18C91.8795 212.209 93.2249 211.198 94.5017 210.12C96.4944 208.41 98.741 207.025 100.628 205.191C101.458 204.402 102.282 203.57 103.09 202.748C102.585 203.069 102.051 203.462 101.53 203.806C99.6485 205.154 97.6542 206.334 95.7892 207.701C94.7835 208.481 93.8061 209.325 92.8233 210.138C91.5003 211.228 90.0936 212.167 88.7654 213.255C86.6097 215.032 84.5446 216.928 82.4368 218.765C81.8783 219.267 81.3531 219.806 80.8382 220.349C81.2453 219.716 81.7134 219.126 82.1795 218.54C85.1376 215.101 88.0227 211.574 91.4677 208.61C94.1338 206.485 96.4845 203.963 99.3631 202.117C101.162 200.98 102.9 199.742 104.74 198.668C106.813 197.514 108.904 196.437 110.989 195.269C113.377 194.07 115.913 193.196 118.329 192.062C116.11 198.169 117.938 200.499 112.513 205.57C111.241 206.757 109.752 207.664 108.279 208.589C104.183 211.346 99.8045 213.637 95.3498 215.773C92.0335 217.354 88.7145 218.743 85.4592 220.472C83.0329 221.448 80.7313 222.669 78.6335 224.236C78.7228 224.098 78.809 223.954 78.8932 223.814L78.888 223.812ZM136.367 111.098C138.865 108.717 141.684 106.657 144.703 104.984C146.96 103.77 149.383 102.942 151.741 101.957C155.053 100.679 158.399 99.3118 161.974 98.9146C160.898 100.012 159.726 100.941 158.622 102.022C157.188 103.366 155.727 104.885 154.17 106.134C153.153 106.957 152.061 107.608 150.886 108.197C149.068 109.154 147.215 110.061 145.231 110.62C143.666 111.111 142.009 111.119 140.43 111.539C139.212 111.915 137.992 112.314 136.798 112.783C137.118 112.604 137.443 112.427 137.757 112.246C139.916 111.041 142.048 109.797 144.026 108.307C145.117 107.525 146.264 106.824 147.241 105.872C147.399 105.696 147.435 105.407 147.283 105.216C147.12 105.01 146.846 105.07 146.688 105.247C146.418 105.498 146.138 105.728 145.839 105.945C142.825 108.077 139.643 109.971 136.427 111.782C135.718 112.183 135.043 112.616 134.38 113.066C135.035 112.393 135.69 111.72 136.371 111.087L136.367 111.098ZM119.892 127C123.29 124.767 127.112 123.307 131.067 122.392C133.553 121.659 136.094 121.198 138.693 121.307C139.169 121.367 140.678 121.129 141.37 121.398C141.576 121.479 141.707 121.601 141.722 121.791C141.724 121.893 141.702 121.98 141.673 122.07C141.203 122.987 140.035 123.251 139.175 123.702C136.54 124.97 133.58 125.102 130.793 125.859C128.288 126.608 125.694 127.037 123.214 127.861C121.572 128.488 119.915 129.091 118.287 129.759C120.163 128.593 122.038 127.414 124.005 126.396C124.121 126.329 124.282 126.266 124.377 126.19C124.034 126.307 123.684 126.426 123.347 126.544C121.033 127.308 118.876 128.431 116.741 129.591C116.451 129.74 116.159 129.894 115.869 130.042C117.206 129.023 118.551 128.013 119.9 127.009L119.892 127ZM114.723 117.765C115.825 114.572 117.262 111.51 118.697 108.453C120.405 104.604 120.713 100.334 121.897 96.3349C122.75 98.6779 123.192 101.146 123.713 103.579C123.97 104.905 124.218 106.251 124.13 107.608C123.71 111.632 121.962 115.429 120.089 118.97C118.535 121.719 116.582 124.2 114.765 126.769C115.017 126.094 115.237 125.406 115.453 124.729C116.483 121.705 117.509 118.69 118.373 115.619C118.549 115.122 118.709 114.513 118.41 114.027C117.867 114.232 117.685 114.851 117.543 115.367C116.752 118.175 115.753 120.938 114.744 123.68C114.17 125.199 113.693 126.774 112.896 128.194C112.531 128.748 112.086 129.234 111.619 129.7C111.794 129.281 111.969 128.862 112.124 128.434C112.378 127.766 112.593 127.077 112.807 126.392C113.331 125.336 113.753 124.239 113.979 123.078C114.352 121.326 114.242 119.487 114.727 117.755L114.723 117.765ZM91.5008 194.33C93.3191 199.494 90.1141 208.237 83.5529 206.591C77.3684 203.336 78.2134 194.803 77.0315 188.876C77.0272 188.857 77.0138 188.845 77.0095 188.826C77.5663 189.412 78.1088 190.004 78.6493 190.601C81.3211 193.605 83.9874 196.577 86.2055 199.951C84.7584 196.949 82.9113 194.088 80.8152 191.469C79.7206 190.126 78.5932 188.807 77.3515 187.597C77.8064 187.132 78.2176 186.626 78.5678 186.078C79.9743 187.186 81.2006 188.526 82.4879 189.771C84.4734 191.758 86.466 193.742 88.4291 195.756C86.2556 192.649 83.9544 189.534 81.2572 186.793C80.7643 186.334 79.9866 185.46 79.2005 184.898C79.2105 184.872 79.2186 184.851 79.2287 184.825C80.4461 185.395 81.6575 185.98 82.8689 186.565C83.9326 187.788 85.121 188.906 86.3774 189.925C88.1231 191.337 90.8075 191.943 91.4956 194.328L91.5008 194.33ZM95.7505 186.63C96.0025 186.502 96.2431 186.358 96.4888 186.216C96.7241 186.177 96.9543 186.136 97.2 186.101C96.7189 186.282 96.241 186.47 95.7505 186.63ZM107.67 144.655C111.524 142.261 116.185 141.794 120.472 140.544C118.198 143.726 116.063 147.052 113.434 149.953C110.098 152.697 106.541 155.475 102.509 157.092C101.336 157.598 100.032 157.845 98.7107 158.062C102.996 155.277 107.113 152.129 107.132 150.281C107.184 148.772 105.305 148.236 104.334 149.25C100.891 152.422 97.5929 155.741 94.262 159.023C93.1859 159.418 92.201 159.992 91.4035 160.924C95.4939 154.411 101.467 149.126 107.66 144.651L107.67 144.655ZM89.4861 161.617C89.503 161.665 89.4964 161.728 89.5184 161.778C89.5901 161.854 89.6699 161.908 89.7525 161.941C90.1346 162.089 90.6129 161.824 90.9365 161.528C90.7167 161.817 90.8099 161.99 91.1369 162.082C90.9635 162.252 90.7849 162.42 90.6115 162.591C89.6076 163.121 88.6691 163.82 87.7893 164.643C88.3536 163.638 88.925 162.629 89.4893 161.624L89.4861 161.617ZM90.4441 153.633C90.4321 152.748 90.3727 151.863 90.336 150.98C89.8173 140.94 93.0427 131.259 95.9954 121.804C96.4043 125.181 97.5869 128.42 97.897 131.806C98.0362 137.142 96.4705 142.289 94.1968 147.102C94.7168 144.592 94.9688 142.388 94.4725 141.434C92.7549 142.483 92.2776 147.127 92.0061 151.304C91.4965 152.199 90.9753 153.079 90.4407 153.947C90.4408 153.84 90.4408 153.733 90.4389 153.631L90.4441 153.633ZM80.0294 178.024C80.1494 177.868 80.2859 177.701 80.4223 177.534C80.6218 177.404 80.8004 177.236 80.9136 177.006C80.9828 176.92 81.0489 176.827 81.113 176.739C81.5604 176.247 82.0428 175.757 82.4988 175.304C82.6114 175.122 82.6457 174.927 82.6501 174.733C83.362 174.005 84.293 173.035 85.3769 172.024C89.0952 167.977 93.1193 162.795 99.1665 166.127C101.826 167.116 101.234 170.025 101.17 172.296C101.209 177.308 98.454 182.699 93.6307 184.591C90.2301 185.716 86.4417 185.471 83.2904 183.743C83.0913 183.69 82.9125 183.721 82.7431 183.774C82.4176 183.617 82.0888 183.454 81.7652 183.292C82.0316 183.265 82.2732 183.24 82.5447 183.215C85.8144 182.883 89.3902 182.361 92.0337 180.233C93.0736 179.366 94.0158 178.383 94.931 177.377C93.5781 178.117 92.1947 178.904 90.7636 179.524C88.3272 180.526 85.5513 180.842 82.9641 181.314C81.9375 181.491 80.9141 181.675 79.8887 181.865C79.8897 181.633 79.8537 181.405 79.8229 181.179C80.3508 180.938 80.8723 180.684 81.3738 180.481C85.3692 178.653 88.3381 175.171 90.3408 171.359C87.6262 173.823 84.8099 176.181 81.708 178.142C80.928 178.618 80.1282 179.067 79.321 179.49C79.2749 179.395 79.2267 179.305 79.1734 179.213C79.4291 178.801 79.6931 178.398 80.0202 178.032L80.0294 178.024ZM68.2939 166.729C68.2974 162.508 70.5711 156.887 74.6717 155.201C77.737 155.135 81.1239 157.311 82.177 160.226C83.6014 164.385 83.401 169.036 80.8145 172.697C80.7578 172.812 80.6878 172.915 80.6157 173.024C80.5172 173.063 80.4314 173.13 80.3965 173.266C80.3603 173.359 80.2983 173.441 80.2589 173.527C79.7063 174.228 79.0258 174.891 78.7116 175.666C78.514 175.899 78.3319 176.137 78.153 176.382C77.8191 176.217 77.4191 176.144 76.9789 176.175C78.0752 174.354 78.6861 171.885 78.967 170.264C79.6008 166.669 79.3962 162.889 77.4515 159.699C77.2116 159.23 76.9698 158.767 76.7187 158.313C76.8523 158.87 77.0112 159.485 77.1275 160.072C77.691 162.32 77.7129 164.66 77.4711 166.975C77.2631 169.035 77.0654 171.099 76.6048 173.12C76.3551 174.082 76.062 175.032 75.6212 175.919C75.5462 176.051 75.4713 176.182 75.3963 176.313C75.0985 176.269 74.7989 176.259 74.5027 176.286C74.3469 173.817 73.9319 171.371 73.2931 168.981C72.966 167.729 72.6222 166.459 72.2653 165.208C72.37 166.45 72.5407 167.706 72.6879 168.977C72.8438 170.18 72.9689 171.4 73.1279 172.61C73.1279 172.61 73.1247 172.603 73.1216 172.596C73.2639 173.894 73.3703 175.209 73.4644 176.524C73.008 176.703 72.578 176.952 72.1783 177.26C71.4373 175.3 70.7497 173.325 69.8006 171.456C69.026 169.994 68.4239 168.38 68.2928 166.717L68.2939 166.729ZM57.7226 187.752C54.5546 188.646 50.2952 188.45 48.0798 185.725C47.9249 183.589 49.9292 181.681 51.0635 179.976C55.1273 173.928 62.2052 176.05 67.3092 179.437C67.983 179.753 68.6809 180.114 69.414 180.263C69.1765 180.521 68.9525 180.791 68.74 181.077C68.4146 181.057 68.0903 181.05 67.771 181.015C65.1497 180.903 62.5439 180.447 59.9223 180.413C58.4362 180.41 56.9554 180.654 55.4974 180.931C57.171 180.94 58.9024 180.985 60.5944 181.222C63.0036 181.679 65.4318 182.072 67.882 182.271C63.4487 182.887 59.0852 183.935 54.7548 185.019C58.9115 184.884 63.1419 184.605 67.2908 184.063C67.2738 184.122 67.2672 184.185 67.2574 184.24C64.0582 185.337 60.9175 186.635 57.7246 187.746L57.7226 187.752ZM67.8081 205.249C65.3332 206.777 62.8762 208.579 60.0068 209.257C54.908 209.917 54.9842 205.997 56.2026 202.291C57.7892 197.746 60.3579 193.245 64.5767 190.738C65.0783 190.321 65.3258 189.685 65.3145 189.104C66.1417 188.737 66.922 188.291 67.6761 187.806C65.8183 190.437 64.658 193.506 62.6846 196.097C65.5535 194.443 67.1011 191.525 68.9019 188.843C68.9796 188.903 69.045 188.964 69.1299 189.021C69.4147 189.221 69.7032 189.381 69.9999 189.52C69.9265 189.724 69.8552 189.922 69.7819 190.125C68.922 192.485 68.1137 194.864 66.8912 197.07C66.8952 197.06 66.8973 197.055 66.9013 197.044C66.4151 197.926 65.9095 198.811 65.4047 199.679C67.8434 197.435 69.6068 194.833 70.4722 191.59C70.643 191.014 70.8056 190.429 70.9609 189.847C71.4323 189.966 71.9043 190.036 72.3786 190.025C72.3743 190.113 72.3679 190.205 72.3635 190.293C72.1646 193.261 71.6432 196.186 70.8991 199.072C71.9742 196.832 72.8273 194.399 73.2301 191.915C73.2846 191.562 73.3951 190.79 73.4858 189.885C74.0784 189.754 74.664 189.518 75.2192 189.223C75.1678 189.69 75.2652 190.234 75.2919 190.684C75.34 191.233 75.3841 191.791 75.4262 192.355C73.4376 196.939 72.2011 202.31 67.8184 205.253L67.8081 205.249ZM71.8244 210.954C70.3414 212.577 68.8606 215.598 68.3569 216.585C70.1496 214.839 71.5927 212.678 73.491 210.997C73.9579 211.309 74.1605 210.835 74.094 210.411C74.6114 210.38 75.0771 210.437 75.493 210.575C74.0787 212.159 73.5524 214.304 73.0032 216.308C74.1998 214.657 75.2817 212.842 76.5153 211.188C77.96 212.655 77.7617 216.277 74.2599 222.776C70.8431 227.743 66.4674 232.271 63.7502 237.672C63.752 237.179 63.7517 236.691 63.7587 236.2C63.8436 232.105 64.6551 227.901 65.8499 223.965C62.7432 228.274 60.6608 233.542 61.0826 238.946C61.1301 239.191 61.1474 239.513 61.1474 239.864C59.5127 233.939 59.5928 227.338 61.608 221.587C63.703 216.348 68.1802 212.353 71.8264 210.949L71.8244 210.954ZM34.3541 205.821C33.6652 204.399 33.4411 202.807 33.1762 201.258C32.3987 196.018 31.9852 190.73 31.2837 185.478C37.5278 189.648 42.0747 195.762 46.8554 201.444C49.6815 204.906 51.5338 209.036 53.4754 213.029C54.5597 215.634 55.6468 218.431 56.2216 221.26C56.4622 222.734 56.5208 224.232 56.7419 225.71C56.7756 226.02 56.8319 226.334 56.8778 226.643C56.7647 227.574 56.6969 228.511 56.6724 229.46C56.4452 228.211 56.2556 226.805 56.0958 225.155C55.5536 219.525 53.3538 211.738 46.9694 210.874C46.8137 210.724 46.6611 210.581 46.5341 210.419C45.603 209.42 44.7108 208.382 43.8716 207.3C40.8941 203.249 37.9574 199.154 35.2509 194.911C37.9001 200.69 41.3541 206.128 45.6302 210.846C44.0499 211.253 42.5825 211.966 41.1647 212.811C38.6851 210.703 35.9984 208.669 34.3509 205.814L34.3541 205.821ZM34.475 243.364C29.3822 243.307 27.166 240.034 26.6854 235.879C27.6803 237.005 28.944 237.913 30.2514 238.649C30.3489 238.735 30.4823 238.804 30.6269 238.861C31.1949 239.082 31.9499 239.037 31.5281 238.242C31.1564 237.533 30.2902 237.344 29.6618 236.926C28.9912 236.51 28.4019 235.977 27.8137 235.457C27.4145 235.123 27.0009 234.795 26.5873 234.467C26.5694 233.842 26.5854 233.206 26.6332 232.564C26.7488 231.336 27.16 230.128 27.7691 228.962C28.232 229.392 28.7132 229.806 29.2616 230.138C31.0299 231.202 32.7923 232.174 34.5641 233.275C33.0774 231.596 31.4299 230.008 29.5975 228.681C29.2181 228.373 28.8662 228.039 28.5092 227.704C29.4229 226.305 30.5915 224.97 31.8925 223.723C33.2341 225.286 34.9148 226.56 36.559 227.79C35.2341 226.244 33.9046 224.65 32.6193 223.048C34.266 221.555 36.0529 220.205 37.7129 219.044C38.5427 219.998 39.4919 220.843 40.492 221.62C39.9533 220.529 39.4192 219.382 38.7286 218.345C39.2155 218.012 39.6944 217.698 40.1425 217.403C42.7692 215.822 45.7099 212.626 48.728 215.229C53.763 219.19 52.8654 226.56 54.3187 232.218C54.7461 234.907 55.7503 237.534 57.3583 239.666C57.1142 239.529 56.9031 239.399 56.7425 239.277C56.0485 238.769 55.5603 238.037 54.9406 237.445C54.3685 236.883 53.7924 236.331 53.2683 235.723C52.0041 234.296 51.0962 232.55 49.9526 231.028C48.9216 229.782 47.7318 228.622 46.5325 227.548C47.0542 228.453 47.5646 229.372 48.1026 230.266C49.5487 232.477 50.8312 234.91 52.5219 236.966C53.605 238.049 54.5332 239.314 55.7467 240.245C56.7681 240.875 57.9145 241.322 58.9086 242.007C58.9369 242.071 58.9613 242.146 58.9896 242.211C58.6393 242.163 58.278 242.16 57.9035 242.174C57.7938 241.983 57.6387 241.785 57.429 241.591C56.6222 241.021 55.6557 240.662 54.8579 240.053C51.2083 237.269 46.9042 235.753 42.3207 235.792C44.1209 236.744 45.9769 237.598 47.6962 238.696C49.6985 240.03 51.5422 241.587 53.5333 242.934C53.4839 242.938 53.4377 242.95 53.3863 242.96C52.8049 243.078 52.2277 243.216 51.6506 243.354C45.9327 243.481 40.2095 243.713 34.4913 243.353L34.475 243.364ZM56.5122 244.951C56.4189 244.992 56.3268 245.045 56.2335 245.086C56.2455 245.055 56.2473 245.02 56.2542 244.987C56.3426 244.974 56.4207 244.957 56.5142 244.946L56.5122 244.951ZM34.8422 278.641C35.3512 278.251 35.8468 277.849 36.3358 277.403C35.977 277.561 34.7135 278.056 33.8167 278.587C32.6641 278.477 31.5233 278.199 30.4117 277.724C30.6222 277.443 30.8052 277.187 30.9253 277.032C30.7037 277.112 30.2252 277.241 29.743 277.41C29.0824 277.075 28.4293 276.66 27.7889 276.166C29.2021 275.028 30.434 273.652 31.4667 272.193C30.6871 272.835 29.9119 273.496 29.0971 274.107C28.4899 274.566 27.8514 274.983 27.2212 275.41C26.4989 273.463 25.8695 271.903 25.3792 270.582C26.8879 269.427 28.3843 268.274 29.8056 267.007C29.2938 267.314 26.7985 268.512 25.0518 269.652C23.6584 265.504 24.1731 263.557 29.0861 257.651C29.0393 257.71 28.9945 257.764 28.9477 257.823C33.3712 252.653 42.1401 249.123 48.7427 246.878C50.2869 246.808 51.8473 246.833 53.3497 246.579C48.6605 249.195 44.827 252.668 42.6515 257.762C46.7226 253.115 52.0324 249.807 57.5928 247.139C56.159 248.162 55.3641 249.851 54.2263 251.168C51.9124 253.9 49.689 256.508 47.7502 259.636C50.4316 257.38 53.3021 255.203 55.6787 252.584C56.3474 251.739 57.053 250.89 57.6542 249.988C56.9515 254.859 56.4841 259.798 54.8464 264.489C53.4526 267.806 52.9775 272.231 49.6836 274.242C46.9324 275.365 44.0011 276.721 41.0463 277.633C42.9552 275.772 44.5078 273.528 45.8675 271.244C45.8675 271.244 45.8675 271.244 45.8623 271.242C43.6755 273.679 41.4812 276.09 38.9414 278.181C38.9322 278.189 38.9178 278.195 38.9066 278.209C37.5457 278.511 36.1866 278.672 34.8454 278.649L34.8422 278.641ZM50.3296 277.438C48.6159 280.416 46.9612 283.441 45.0177 286.277C42.1897 290.099 39.0176 293.645 35.9418 297.265C32.6446 301.208 29.2105 305.044 25.3007 308.392C24.0623 309.51 22.6261 310.371 20.9931 310.746C21.8348 308.189 22.7631 305.655 23.3417 303.025C23.7665 301.156 24.2318 298.97 24.9685 297.11C26.1254 294.355 27.3481 291.584 29.0571 289.122C30.3826 287.384 32.1409 286.047 33.9185 284.812C35.5566 283.738 37.5529 283.469 39.3064 282.647C40.723 282.004 42.0089 281.131 43.3157 280.296C44.0965 279.803 44.9729 279.294 45.7952 278.71C46.0271 278.634 46.259 278.558 46.4909 278.482C45.0154 280.131 43.4808 281.734 41.9482 283.332C39.3028 286.167 36.834 289.297 34.3983 292.327C38.1327 289.048 41.8224 285.608 45.2531 281.979C46.5106 280.69 47.5923 279.197 48.6576 277.714C49.3356 277.455 49.9978 277.16 50.6339 276.825C50.5308 277.029 50.4359 277.242 50.3328 277.445L50.3296 277.438ZM90.7217 286.154C92.6529 285.747 94.3719 287.273 95.6 288.578C97.1996 290.457 97.9939 292.86 98.8417 295.141C99.5784 297.189 100.063 299.441 99.3199 301.561C98.4036 304.63 96.233 307.162 93.607 308.941C92.3183 309.836 90.7257 310.595 89.091 310.547C88.8307 310.559 88.5768 310.478 88.3094 310.492C88.007 310.398 87.7026 310.31 87.4002 310.215C89.714 308.399 91.615 305.642 92.9882 303.37C93.3421 302.782 93.6929 302.187 94.0076 301.579C93.7913 301.798 93.5725 302.069 93.343 302.307C90.7103 305.064 88.0841 307.972 84.9067 310.112C84.7603 310.198 84.6096 310.264 84.4548 310.341C84.3617 310.167 84.2829 309.988 84.1826 309.818C84.387 309.66 84.5788 309.473 84.7305 309.282C86.278 307.631 87.1458 305.465 87.7783 303.338C86.9197 304.58 86.1616 305.885 85.2606 307.098C84.7912 307.783 84.1211 308.343 83.6196 309.004C83.4352 308.76 83.2397 308.529 83.037 308.301C83.6519 307.44 84.2597 306.583 84.8084 305.678C85.8421 303.988 86.9149 302.074 87.699 300.215C88.3244 298.686 88.6883 297.019 89.0909 295.422C88.9472 295.699 88.8144 296.04 88.671 296.346C87.8607 298.273 86.8634 300.115 85.6852 301.857C84.6077 303.477 83.6615 305.172 82.6265 306.821C82.4895 307.035 82.3556 307.256 82.2134 307.469C82.1045 307.367 81.9955 307.265 81.8825 307.173C81.8865 307.163 81.8905 307.152 81.8946 307.142C82.7067 304.966 83.1826 302.707 83.476 300.413C84.1015 297.266 85.2963 293.681 86.4399 290.594C87.2398 288.663 88.6297 286.76 90.7186 286.147L90.7217 286.154ZM87.6961 310.616C87.4582 310.601 87.2152 310.584 86.9721 310.566C87.0723 310.492 87.1642 310.409 87.2644 310.335C87.4124 310.428 87.5532 310.525 87.6961 310.616ZM77.8243 237.821C74.2741 238.674 70.9235 240.098 67.7176 241.823C68.5471 241.129 69.3932 240.454 70.2643 239.806C75.4357 236.212 81.2411 233.663 86.7762 230.693C81.5552 230.811 76.677 232.996 72.295 235.785C77.8312 231.21 84.2298 227.672 91.3289 226.275C93.8684 225.879 97.7154 224.951 100.524 225.802C99.6372 226.033 98.7924 226.4 97.954 226.781C99.2301 226.665 100.56 226.565 101.841 226.392C102.422 226.762 102.926 227.255 103.303 227.92C103.455 228.264 103.562 228.615 103.667 228.971C103.089 229.293 102.499 229.587 101.912 229.887C100.063 230.695 98.0423 231.026 96.172 231.796C98.3386 231.594 100.755 231.727 102.714 230.593C103.091 230.359 103.483 230.131 103.864 229.899C104.07 231.097 104.042 232.329 103.813 233.543C102.372 234.034 100.847 234.528 99.4129 235.034C100.04 235.011 101.903 234.916 103.561 234.676C103.305 235.593 102.949 236.477 102.525 237.305C101.67 237.591 100.813 237.852 99.9542 238.148C100.354 238.143 101.242 238.108 102.147 237.985C102.089 238.087 102.037 238.192 101.979 238.294C98.903 242.829 92.6438 243.079 87.6865 243.788C84.2351 244.067 80.1435 244.34 76.5331 244.218C73.2658 244.009 69.8198 243.862 66.629 244.617C68.5697 243.666 70.5042 242.701 72.5111 241.901C76.0757 240.584 79.9114 240.127 83.3935 238.564C84.5601 238.043 85.7281 237.457 86.8247 236.826C83.817 237.004 80.7718 237.126 77.8283 237.811L77.8243 237.821ZM64.4812 264.003C61.9082 259.616 62.003 255.709 61.6551 251.321C61.8661 251.665 62.0699 252.012 62.2521 252.368C63.4182 254.565 65.0907 256.532 67.4183 257.534C68.1667 257.903 68.9384 258.227 69.7181 258.531C69.935 258.616 70.157 258.702 70.3759 258.782C69.8503 258.238 69.2691 257.684 68.7136 257.141C66.1187 255.023 64.7896 251.977 63.1752 249.13C63.3081 249.033 63.4411 248.936 63.5657 248.83C64.8163 250.001 66.1321 251.097 67.634 251.944C68.4431 252.431 69.2845 252.837 70.1623 253.179C71.634 253.752 73.1812 254.147 74.7268 254.47C72.1908 252.72 69.7134 250.851 67.3592 248.833C70.2628 249.334 73.3648 250.15 76.2513 251.275C80.1138 252.78 83.59 254.819 85.6891 257.308C87.0996 259.214 88.0651 261.315 88.4725 263.49C87.2828 262.682 85.8718 261.983 85.4335 261.765C86.485 262.775 87.6029 263.722 88.6412 264.751C88.7776 266.309 88.6199 267.89 88.1264 269.446C86.3084 267.09 83.1231 264.778 81.2105 263.23C81.3564 263.435 81.5735 263.657 81.7421 263.865C83.1868 265.576 84.6827 267.247 86.0652 269.012C86.5342 269.67 87.0976 270.3 87.5135 271.003C87.4115 271.219 87.3095 271.435 87.1971 271.647C86.8553 272.555 86.4258 273.322 85.918 273.968C85.3972 273.046 84.6092 272.275 83.8025 271.597C83.0342 270.959 82.2338 270.296 81.4433 269.714C82.6025 271.487 84.0155 273.096 84.9279 274.998C82.6745 276.904 79.4714 277.095 76.1625 276.382C69.9275 275.196 67.2786 268.989 64.4751 264.018L64.4812 264.003ZM68.796 300.521C68.7186 300.384 68.6381 300.239 68.5607 300.102C67.8375 298.982 66.926 297.978 65.9219 297.105C61.882 292.438 57.6916 287.867 54.9763 282.288C52.9846 278.211 56.0831 272.87 60.7333 273.04C62.9218 273.56 64.8721 274.6 66.6684 275.912C67.7602 277.17 68.9928 278.281 70.4189 279.17C71.5341 280.277 72.6013 281.43 73.6385 282.554C77.4297 287.035 81.162 294.705 79.9243 300.629C79.6813 300.962 79.772 301.325 79.9996 301.58C79.9841 301.681 79.9665 301.787 79.9509 301.888C79.7595 302.807 79.5382 303.726 79.2735 304.634C79.3946 303.087 79.3672 301.524 79.4111 299.977C79.5526 297.034 78.1002 295.052 76.4693 292.781C76.4005 292.683 76.3337 292.58 76.2598 292.48C76.291 292.628 76.3749 292.81 76.4247 292.972C77.0744 294.968 77.8926 296.928 77.9723 299.059C78.0713 301.156 78.259 303.269 78.2334 305.365C77.9849 305.315 77.7336 305.289 77.4854 305.269C77.4788 305.225 77.4691 305.174 77.4625 305.13C77.0525 303.007 76.7329 300.866 76.1205 298.79C75.0915 295.462 73.5007 292.142 71.4776 289.29C72.5821 291.843 73.2823 294.549 74.0584 297.213C74.5563 298.912 75.0418 300.611 75.4523 302.336C75.6319 303.203 75.8362 304.068 76.0178 304.929C76.0447 305.059 76.0696 305.193 76.0965 305.323C75.7441 305.388 75.3951 305.49 75.0526 305.636C74.8575 305.679 74.6634 305.734 74.4694 305.789C74.0077 304.562 73.5336 303.337 73.0719 302.11C72.1402 299.647 71.2894 297.145 70.13 294.778C69.2932 293.155 68.2957 291.624 67.506 289.972C67.4318 289.842 67.3736 289.671 67.2934 289.556C67.9516 292.507 69.125 295.296 70.0542 298.162C70.0542 298.162 70.0479 298.148 70.0447 298.141C70.0479 298.148 70.051 298.155 70.0522 298.167C70.0585 298.182 70.0596 298.194 70.0659 298.209C70.0648 298.196 70.0565 298.187 70.0553 298.175C70.8878 300.694 72.062 303.114 73.1898 305.517C73.2947 305.736 73.3852 305.961 73.4901 306.181C73.2432 306.311 73.0213 306.468 72.8191 306.651C72.4633 306.221 72.1259 305.774 71.7936 305.329C71.6769 305.171 71.5674 305.009 71.4528 304.846C71.8936 305.226 72.3343 305.605 72.7699 305.983C71.5755 304.073 70.2247 302.273 68.8083 300.52L68.796 300.521ZM72.4655 315.465C72.2672 315.5 72.07 315.549 71.8648 315.617C72.019 315.481 72.1712 315.35 72.3222 315.207C72.3704 315.297 72.4205 315.382 72.4707 315.467L72.4655 315.465ZM65.5165 314.416C63.7063 314.651 61.8965 314.945 60.0609 314.878C56.7886 314.697 53.5741 313.956 50.4283 313.069C46.7917 311.854 40.1006 309.716 40.671 304.895C41.0179 303.287 41.6993 301.691 42.9211 300.555C45.0568 298.616 47.9144 297.999 50.7319 298.187C53.723 298.341 56.7034 299.027 59.4113 300.32C63.6389 302.598 67.9434 305.197 71.6254 308.386C71.4371 308.854 71.3179 309.343 71.2453 309.85C66.9121 308.423 62.8072 306.395 58.6344 304.603C61.4423 306.25 64.226 307.852 67.2152 309.172C67.5726 309.323 67.9372 309.471 68.2987 309.612C69.2488 309.982 70.2171 310.306 71.1882 310.607C71.1876 310.654 71.1818 310.7 71.1812 310.747C66.8124 311.091 62.3957 310.214 58.0535 309.741C61.4353 311 64.9686 312.174 68.618 312.288C69.5147 312.322 70.4171 312.311 71.3108 312.231C71.3997 312.736 71.5256 313.237 71.6937 313.736C69.6538 314.072 67.5724 314.254 65.5145 314.421L65.5165 314.416ZM76.6868 346.576C71.5531 348.043 66.8366 344.837 64.5295 340.363C63.8391 339.113 63.2874 337.72 62.8593 336.346C62.1974 334.244 61.6284 332.071 61.6426 329.852C61.6849 327.561 62.763 325.435 64.1282 323.642C65.404 321.986 70.5232 317.045 72.9866 316.31C73.3641 316.868 73.7896 317.378 74.2536 317.821C73.3793 319.485 72.445 321.119 71.5944 322.798C70.3836 325.05 69.1648 327.323 67.397 329.204C69.874 327.564 71.7076 325.102 73.2836 322.6C74.0417 321.402 74.7346 320.173 75.3955 318.92C75.4188 318.876 75.4481 318.816 75.4734 318.766C75.5634 318.825 75.6567 318.891 75.7507 318.94C75.9297 319.045 76.1259 319.122 76.3181 319.208C75.8345 326.372 75.2953 333.525 75.1916 340.705C76.271 333.768 77.4145 326.743 77.7695 319.697C78.1345 319.767 78.5 319.791 78.8705 319.787C79.1196 325.1 79.5725 330.41 80.0468 335.71C80.303 330.397 80.2385 325.007 79.9274 319.669C80.0887 319.637 80.25 319.605 80.4101 319.56C80.7679 319.634 81.1326 319.675 81.5031 319.671C81.675 319.672 81.8405 319.659 82.0041 319.652C82.3287 322.925 82.6306 326.195 83.2183 329.433C83.6861 332.262 84.2531 335.142 83.8115 338.015C83.0954 342.768 81.4563 345.234 76.6908 346.565L76.6868 346.576ZM83.8733 323.021C83.5397 321.969 83.5466 320.776 82.8419 319.883C82.6792 320.224 82.6252 320.637 82.6534 321.023C82.5042 320.566 82.355 320.11 82.2058 319.653C82.5143 319.624 82.803 319.57 83.0803 319.5C87.2337 323.159 91.3699 326.739 95.807 330.128C92.2871 326.187 88.6255 322.274 84.5606 318.846C85.0351 318.513 85.4122 318.095 85.6889 317.614C87.0546 318.2 88.4187 318.713 89.0885 319.147C92.6301 320.789 95.9608 322.789 99.2553 324.881L99.2398 324.875C100.334 325.623 100.91 325.978 101.116 326.059C101.953 326.385 96.5211 322.037 95.2403 321.051C94.5171 320.388 89.8385 317.619 86.1997 315.922C86.2358 315.478 86.2132 315.017 86.1194 314.54C89.1325 315.31 92.0724 316.42 95.0785 317.222C94.2576 316.796 93.3657 316.383 92.514 315.973C90.3095 314.93 88.0743 313.904 85.722 313.255C85.6956 313.185 85.6745 313.118 85.6409 313.051C85.5779 312.908 85.5025 312.765 85.4323 312.625C87.0052 312.542 88.5803 312.484 90.1203 312.18C90.9286 312.685 91.7461 313.182 92.5828 313.645C97.3314 316.417 103.101 318.005 106.503 322.584C108.039 324.854 110.013 327.527 110.107 330.353C110.079 331.312 109.857 332.248 109.583 333.164C109.179 334.566 108.785 336.006 107.906 337.192C105.978 339.058 103.196 340.044 100.526 339.967C96.0327 339.851 92.8733 336.985 89.9109 333.933C86.7278 330.944 85.0303 327.195 83.8661 323.024L83.8733 323.021ZM80.2713 390.28C78.8561 388.432 78.4305 386.059 77.6785 383.899C76.4521 380.132 75.2007 376.337 74.8227 372.377C74.4662 365.416 76.0299 357.496 80.0217 351.694C80.3928 350.833 82.7561 348.798 84.0468 347.088C84.052 347.09 84.0572 347.092 84.0655 347.102C84.1931 347.568 84.3331 348.033 84.4855 348.497C81.8695 350.249 80.096 358.402 79.5708 360.452C78.775 363.883 78.6876 367.465 79.1561 370.949C79.4306 366.077 81.8164 355.254 84.9512 350.522C84.945 350.751 84.9523 350.992 84.9742 351.256C84.5382 364.327 83.2544 377.542 80.2681 390.273L80.2713 390.28ZM105.949 389.408C107.514 392.872 109.108 396.337 110.652 399.823C109.401 394.898 107.774 390.006 105.855 385.255C106.553 386.241 107.235 387.238 107.903 388.242C109.561 390.732 110.813 393.456 112.071 396.165C112.835 397.807 113.598 399.603 114.127 401.362C115.137 405.211 115.677 409.181 116.163 413.123C116.214 413.833 116.784 420.092 115.751 419.63C114.888 419.264 114.177 418.511 113.506 417.851C111.439 415.737 110.024 413.11 108.545 410.571C106.787 407.59 105.293 404.432 104.422 401.065C103.114 396.41 102.204 391.648 101.624 386.848C101.483 384.384 101.661 381.914 101.682 379.448C101.893 379.898 102.109 380.351 102.32 380.802C103.605 383.641 104.65 386.576 105.944 389.406L105.949 389.408ZM111.477 385.251C110.99 384.853 110.504 384.45 110.026 384.043C111.54 384.83 113.094 385.542 114.663 386.201C114.761 386.257 114.934 386.331 115.172 386.423C117.774 387.437 127.952 390.488 127.076 387.957C126.009 387.048 123.758 387.467 122.35 386.96C118.534 386.175 114.938 384.81 111.274 383.376C110.008 382.87 108.746 382.337 107.502 381.775C107.308 381.586 107.128 381.391 106.934 381.203C106.267 380.336 105.616 379.458 104.975 378.583C107.712 379.864 110.858 379.865 113.774 380.531C117.086 381.281 120.258 382.362 123.408 383.649C126.884 385.063 130.039 387.131 133.378 388.819C136.178 390.243 139.036 391.548 141.854 392.925C144.305 394.13 146.939 394.865 149.547 395.637C145.452 396.07 141.301 396.528 137.188 396.002C133.78 395.572 130.439 394.746 127.129 393.837C124.845 393.179 122.536 392.511 120.393 391.462C117.11 389.891 114.324 387.485 111.475 385.256L111.477 385.251ZM141.404 418.058C144.803 423.243 149.171 428.96 149.606 435.339C149.595 435.335 149.585 435.331 149.573 435.332C149.519 435.317 149.47 435.304 149.419 435.284C146.874 434.09 145.249 431.637 143.39 429.615C140.448 426.251 137.54 422.708 135.301 418.808C134.435 417.198 133.726 415.554 133.251 413.781C132.975 412.733 132.87 411.616 132.689 410.522C134.481 412.915 136.347 415.255 138.08 417.691C138.08 417.691 138.075 417.689 138.074 417.676C138.065 417.667 138.059 417.653 138.051 417.643C138.783 418.726 139.348 420.053 140.602 420.636C140.395 417.885 135.758 412.842 132.446 409.345C132.278 408.661 132.055 407.997 131.689 407.379C135.295 410.58 138.816 413.939 141.391 418.047L141.404 418.058ZM145.354 413.233C146.815 413.606 148.285 413.971 149.748 414.321C153.218 415.185 157.012 415.492 160.517 414.574C160.68 414.536 160.837 414.484 160.998 414.452C160.704 414.26 160.33 414.168 159.979 414.091C158.827 413.874 157.654 414.136 156.49 414.147C155.696 414.17 154.902 414.117 154.106 414.068C150.772 413.649 147.476 412.948 144.147 412.454C143.561 412.082 142.983 411.702 142.4 411.321C144.699 411.818 146.981 411.333 149.376 411.416C151.449 411.361 153.496 411.725 155.566 411.818C157.504 411.865 159.433 412.058 161.365 412.168C164.813 412.447 168.579 410.994 171.745 412.912C170.689 414.707 169.023 415.259 167.134 415.802C164.928 416.471 162.63 416.783 160.332 416.863C158.374 416.927 156.431 416.663 154.53 416.214C151.975 415.659 149.412 414.987 146.886 414.157C146.372 413.844 145.851 413.546 145.344 413.229L145.354 413.233ZM176.495 435.432C174.686 434.87 172.879 434.303 171.132 433.58C168.469 432.477 166.017 430.742 164.416 428.316C163.568 426.951 162.864 425.737 161.797 424.429C161.576 424.158 161.352 423.893 161.129 423.627C163.524 424.989 165.908 426.382 168.416 427.531C168.736 427.656 169.055 427.799 169.381 427.925C169.737 428.064 170.101 428.182 170.477 428.24C170.7 428.249 170.971 428.224 171.164 428.097C171.165 427.925 171.026 427.763 170.902 427.638C170.066 427.068 168.894 426.808 167.988 426.264C165.979 425.16 164.032 423.961 162.052 422.815C162.847 423.125 163.644 423.43 164.441 423.734C163.845 423.419 163.225 423.1 162.611 422.783C165.132 423.914 167.679 424.996 170.174 426.194C176.041 429.272 181.481 432.117 184.352 438.47C181.89 437.112 179.194 436.276 176.495 435.432Z" fill="black"/>
</svg>
