<svg width="512" height="512" viewBox="0 0 512 512" fill="none" xmlns="http://www.w3.org/2000/svg">
<path d="M115.722 135.414C128.829 135.414 139.971 137.271 149.146 140.984C158.321 144.698 167.277 149.941 176.015 156.713C178.418 158.679 180.494 159.662 182.241 159.662C186.61 159.662 189.45 153.108 190.761 140.001H198.298C197.424 154.201 196.987 179.323 196.987 215.368H189.45C187.047 201.168 184.863 191.01 182.897 184.893C180.931 178.558 177.654 172.551 173.066 166.871C166.513 158.351 158.102 152.016 147.835 147.866C137.786 143.496 126.863 141.312 115.067 141.312C100.867 141.312 88.4156 146.009 77.7114 155.402C67.2256 164.796 59.0336 178.231 53.1354 195.707C47.2371 212.965 44.288 233.281 44.288 256.655C44.288 280.467 47.4556 300.892 53.7907 317.931C60.1259 334.971 68.864 347.969 80.0051 356.925C91.3647 365.664 104.144 370.033 118.344 370.033C129.266 370.033 139.861 367.957 150.129 363.807C160.396 359.656 168.479 353.43 174.377 345.129C178.746 339.012 181.914 332.459 183.88 325.468C185.846 318.478 187.703 307.773 189.45 293.355H196.987C196.987 330.929 197.424 357.144 198.298 371.999H190.761C190.106 365.008 189.123 360.093 187.812 357.253C186.72 354.195 185.081 352.666 182.897 352.666C181.149 352.666 178.855 353.539 176.015 355.287C166.185 362.277 156.791 367.63 147.835 371.343C138.878 374.839 128.065 376.586 115.395 376.586C94.6415 376.586 76.4007 371.889 60.672 362.496C45.1618 353.102 33.0377 339.558 24.2995 321.864C15.7799 303.95 11.52 282.651 11.52 257.966C11.52 233.936 15.8891 212.637 24.6272 194.068C33.5838 175.5 45.9264 161.082 61.6551 150.815C77.6022 140.547 95.6246 135.414 115.722 135.414Z" fill="white"/>
<path d="M269.978 427.52L259.738 427.52L259.738 84.48L269.978 84.48L269.978 427.52Z" fill="white"/>
<path d="M499.19 330.056C499.19 342.507 499.954 356.488 501.484 371.999C486.629 371.343 461.616 371.016 426.445 371.016C384.502 371.016 352.826 371.343 331.418 371.999V365.445C339.282 365.008 344.962 364.134 348.457 362.824C352.171 361.513 354.683 359.001 355.994 355.287C357.304 351.573 357.96 345.566 357.96 337.265V174.735C357.96 166.434 357.304 160.427 355.994 156.713C354.683 152.999 352.171 150.487 348.457 149.176C344.962 147.866 339.282 146.992 331.418 146.555V140.001C352.826 140.657 384.502 140.984 426.445 140.984C458.558 140.984 481.386 140.657 494.93 140.001C493.401 154.419 492.636 167.308 492.636 178.667C492.636 187.187 492.964 193.959 493.619 198.984H486.083C484.554 184.784 482.587 174.298 480.184 167.526C477.781 160.536 473.74 155.511 468.06 152.453C462.381 149.176 453.752 147.538 442.174 147.538H414.976C407.112 147.538 401.323 148.193 397.609 149.504C394.114 150.596 391.711 152.999 390.4 156.713C389.089 160.427 388.434 166.434 388.434 174.735V252.068H410.061C417.707 252.068 423.605 250.32 427.756 246.825C431.906 243.111 434.637 238.851 435.948 234.045C437.477 229.021 438.678 222.795 439.552 215.368L440.535 208.814H448.072C447.416 217.989 447.089 228.256 447.089 239.616V255.345C447.089 266.486 447.744 281.996 449.055 301.875H441.518C441.3 300.346 440.644 295.103 439.552 286.146C438.46 276.971 435.402 270.09 430.377 265.503C425.571 260.915 418.799 258.621 410.061 258.621H388.434V337.265C388.434 345.566 389.089 351.573 390.4 355.287C391.711 359.001 394.114 361.513 397.609 362.824C401.323 363.916 407.112 364.462 414.976 364.462H438.897C452.441 364.462 462.708 362.714 469.699 359.219C476.908 355.505 482.151 349.716 485.427 341.852C488.704 333.769 491.107 321.973 492.636 306.463H500.173C499.518 312.361 499.19 320.225 499.19 330.056Z" fill="white"/>
</svg>
